<svg width="36" height="36" viewBox="0 0 36 36" fill="none" xmlns="http://www.w3.org/2000/svg">
<path d="M35.6173 18.405C35.6173 17.22 35.5123 16.095 35.3323 15H18.3823V21.765H28.0873C27.6523 23.985 26.3773 25.86 24.4873 27.135V31.635H30.2773C33.6673 28.5 35.6173 23.88 35.6173 18.405Z" fill="#4285F4"/>
<path d="M18.3824 36C23.2424 36 27.3074 34.38 30.2774 31.635L24.4874 27.135C22.8674 28.215 20.8124 28.875 18.3824 28.875C13.6874 28.875 9.71238 25.71 8.28738 21.435H2.31738V26.07C5.27238 31.95 11.3474 36 18.3824 36Z" fill="#34A853"/>
<path d="M8.28732 21.435C7.91232 20.355 7.71732 19.2 7.71732 18C7.71732 16.8 7.92732 15.645 8.28732 14.565V9.93H2.31732C1.08732 12.36 0.382324 15.09 0.382324 18C0.382324 20.91 1.08732 23.64 2.31732 26.07L8.28732 21.435Z" fill="#FBBC05"/>
<path d="M18.3824 7.125C21.0374 7.125 23.4074 8.04 25.2824 9.825L30.4124 4.695C27.3074 1.785 23.2424 0 18.3824 0C11.3474 0 5.27238 4.05 2.31738 9.93L8.28739 14.565C9.71239 10.29 13.6874 7.125 18.3824 7.125Z" fill="#EA4335"/>
</svg>
