<svg width="36" height="36" viewBox="0 0 36 36" fill="none" xmlns="http://www.w3.org/2000/svg">
<path fill-rule="evenodd" clip-rule="evenodd" d="M18.0585 5.08501C18.0483 5.16916 18.0307 5.33368 18.0193 5.45059C18.008 5.56759 17.9764 5.71339 17.9492 5.77459C17.9219 5.83588 17.8827 6.08437 17.8619 6.32674C17.8412 6.5692 17.8002 6.8203 17.7707 6.88474C17.7414 6.94927 17.702 7.19749 17.6833 7.43643C17.6638 7.68483 17.6262 7.91604 17.5954 7.97643C17.5639 8.03817 17.5258 8.27964 17.5034 8.55846C17.4799 8.85177 17.4442 9.07317 17.4104 9.13446C17.3766 9.19557 17.3419 9.41004 17.3202 9.69048C17.3002 9.94968 17.2625 10.1909 17.2329 10.2485C17.2039 10.3048 17.1638 10.5539 17.1427 10.8082C17.1218 11.0602 17.0803 11.3194 17.0506 11.3842C17.0209 11.449 16.9803 11.6996 16.9604 11.9411C16.9406 12.1827 16.9012 12.4257 16.873 12.4811C16.8443 12.5375 16.8047 12.7938 16.7832 13.0622C16.759 13.3633 16.7251 13.5723 16.6922 13.6225C16.6593 13.6727 16.6259 13.8784 16.6027 14.1741C16.5819 14.4392 16.543 14.6903 16.514 14.7479C16.4855 14.804 16.4449 15.0561 16.4235 15.3081C16.4023 15.56 16.3609 15.8192 16.3315 15.8841C16.3022 15.9489 16.2613 16.2015 16.2408 16.4454C16.1897 17.0528 16.1146 17.1701 15.7758 17.1715C15.7105 17.1718 15.6088 17.1969 15.5498 17.2274C15.4909 17.2579 15.3013 17.2999 15.1286 17.3208C14.9559 17.3416 14.7886 17.382 14.7568 17.4102C14.725 17.4386 14.5954 17.4799 14.4688 17.5019C14.3422 17.5241 14.2023 17.5703 14.158 17.6049C14.1137 17.6395 14.0032 17.6788 13.9124 17.6925C13.8216 17.7061 13.7161 17.7484 13.678 17.7866C13.6398 17.8248 13.5623 17.856 13.5058 17.856C13.4461 17.856 13.3624 17.8937 13.306 17.946C13.2526 17.9955 13.1716 18.036 13.126 18.036C13.0804 18.036 12.9994 18.0765 12.946 18.126C12.8926 18.1755 12.8181 18.216 12.7806 18.216C12.7431 18.216 12.6682 18.2569 12.6143 18.3069C12.5604 18.3568 12.4744 18.4081 12.4234 18.4207C12.3724 18.4333 12.3094 18.4734 12.2835 18.5098C12.2577 18.5462 12.216 18.576 12.191 18.576C12.166 18.576 12.0911 18.6246 12.0246 18.684C11.9581 18.7434 11.8741 18.792 11.8381 18.792C11.8021 18.792 11.7726 18.8137 11.7726 18.8402C11.7726 18.8667 11.7361 18.905 11.6916 18.9254C11.4927 19.016 10.3335 20.1627 10.0266 20.5725C9.987 20.6253 9.9222 20.7038 9.8826 20.7468C9.843 20.7899 9.78306 20.886 9.7494 20.9605C9.71565 21.0351 9.67218 21.096 9.65283 21.096C9.63339 21.096 9.60639 21.1324 9.59289 21.177C9.57939 21.2215 9.53898 21.2904 9.50316 21.33C9.46725 21.3696 9.42675 21.447 9.41316 21.502C9.39948 21.5569 9.3597 21.6172 9.32469 21.636C9.28959 21.6547 9.25071 21.7249 9.23811 21.7921C9.22551 21.8592 9.18429 21.9421 9.14649 21.9763C9.10878 22.0105 9.06738 22.1003 9.0546 22.176C9.04182 22.2517 9.00132 22.3408 8.9646 22.374C8.92788 22.4072 8.88684 22.5018 8.87334 22.5842C8.85993 22.6666 8.81916 22.7907 8.7828 22.86C8.74644 22.9293 8.69892 23.0749 8.67723 23.1835C8.65545 23.2922 8.61486 23.4159 8.58687 23.4586C8.55897 23.5012 8.51928 23.7001 8.49867 23.9004C8.47815 24.1006 8.43684 24.3231 8.40696 24.3947C8.32866 24.5821 8.32758 26.1108 8.40561 26.2672C8.43477 26.3257 8.47662 26.5348 8.49849 26.7318C8.52144 26.9384 8.55987 27.114 8.58939 27.1468C8.61747 27.178 8.65941 27.2995 8.68245 27.4168C8.70549 27.5341 8.75364 27.6681 8.78955 27.7147C8.82537 27.7612 8.86488 27.8533 8.87721 27.9192C8.88963 27.9853 8.92959 28.0663 8.96613 28.0993C9.00267 28.1325 9.04299 28.2071 9.05577 28.2653C9.06855 28.3235 9.11805 28.4102 9.16584 28.4579C9.21354 28.5057 9.2526 28.5673 9.2526 28.5948C9.2526 28.6223 9.28455 28.6738 9.3237 28.7092C9.36276 28.7446 9.40407 28.803 9.4155 28.8389C9.45096 28.9507 10.1185 29.6582 10.4487 29.934C10.5198 29.9934 10.6213 30.0784 10.6743 30.123C10.7273 30.1675 10.7922 30.204 10.8186 30.204C10.845 30.204 10.9043 30.2362 10.9505 30.2755C11.0503 30.3605 11.4374 30.564 11.4993 30.564C11.5231 30.564 11.5975 30.6045 11.6646 30.654C11.7316 30.7035 11.836 30.7444 11.8966 30.7448C11.9571 30.7453 12.0795 30.7793 12.1686 30.8204C12.5595 31.0009 14.3866 31.0166 14.6538 30.8417C14.7026 30.8098 14.8155 30.7724 14.9046 30.7588C14.9937 30.7451 15.1314 30.6975 15.2106 30.6532C15.2898 30.6088 15.4032 30.5612 15.4626 30.5474C15.522 30.5337 15.5955 30.5 15.6259 30.4726C15.6564 30.4452 15.7414 30.3976 15.8149 30.3669C15.8885 30.3362 15.9486 30.2962 15.9486 30.278C15.9486 30.2597 15.9842 30.2335 16.0279 30.2196C16.0714 30.2059 16.2051 30.1151 16.3249 30.0179C16.4446 29.9208 16.597 29.7974 16.6636 29.7436C16.7302 29.6899 16.7989 29.6298 16.8163 29.61C16.8521 29.5693 17.2501 29.0721 17.335 28.962C17.3986 28.8797 17.4961 28.7052 17.5994 28.489C17.6386 28.407 17.6878 28.3294 17.7086 28.3164C17.7295 28.3036 17.7649 28.2253 17.7871 28.1427C17.8093 28.0601 17.8584 27.9534 17.8961 27.9054C17.9337 27.8575 17.9646 27.7743 17.9646 27.7205C17.9646 27.6667 18.0024 27.5514 18.0487 27.4644C18.0948 27.3773 18.143 27.2189 18.1555 27.1124C18.168 27.006 18.204 26.8796 18.2355 26.8316C18.2669 26.7836 18.309 26.5975 18.3291 26.4181C18.3491 26.2386 18.3836 26.0491 18.4059 25.9969C18.428 25.9447 18.4553 25.6347 18.4664 25.308C18.4858 24.7378 18.4898 24.7126 18.5668 24.6788C18.6442 24.6449 18.6472 24.6242 18.6568 24.0668C18.6663 23.5076 18.6691 23.4889 18.7476 23.4544C18.827 23.4196 18.8286 23.4067 18.8286 22.8181C18.8286 22.2132 18.851 22.104 18.9752 22.104C18.9939 22.104 19.0086 21.9086 19.0086 21.6584C19.0086 21.1022 19.0074 21.1037 19.3963 21.1681C19.6496 21.2099 19.7941 21.2637 20.1066 21.432C20.166 21.464 20.2797 21.5208 20.3591 21.5581C20.4386 21.5956 20.5256 21.6526 20.5525 21.685C20.5794 21.7174 20.6228 21.744 20.6489 21.744C20.6751 21.744 20.7177 21.7741 20.7435 21.8109C20.7694 21.8476 20.8242 21.8883 20.8655 21.9013C21.0033 21.9448 21.8526 22.8221 21.8526 22.9209C21.8526 22.9373 21.885 22.9709 21.9246 22.9956C21.9642 23.0204 21.9966 23.0624 21.9966 23.089C21.9966 23.1156 22.0452 23.1881 22.1046 23.2503C22.164 23.3125 22.2126 23.392 22.2126 23.427C22.2126 23.462 22.2429 23.5096 22.2801 23.5328C22.3172 23.556 22.3588 23.6206 22.3727 23.6765C22.3866 23.7323 22.427 23.8104 22.4625 23.85C22.4981 23.8896 22.5378 23.967 22.5508 24.0219C22.5638 24.0769 22.6042 24.1516 22.6405 24.1879C22.677 24.2244 22.7182 24.3153 22.7322 24.39C22.7462 24.4647 22.7874 24.5682 22.8238 24.6199C22.8601 24.6717 22.9006 24.777 22.9138 24.8539C22.9269 24.9309 22.9673 25.0362 23.0035 25.0879C23.0397 25.1397 23.0782 25.255 23.089 25.3441C23.0999 25.4333 23.1403 25.5791 23.1788 25.6681C23.2173 25.7572 23.2605 25.9434 23.2745 26.082C23.2886 26.2206 23.3249 26.3818 23.355 26.4403C23.3883 26.5045 23.4232 26.7254 23.4432 26.9983C23.4615 27.2467 23.508 27.5705 23.5466 27.7177C23.5851 27.8651 23.6166 28.0622 23.6166 28.1559C23.6166 28.4676 23.4279 28.44 25.5606 28.44C27.1956 28.44 27.4637 28.4326 27.4811 28.3873C27.4993 28.3399 27.4206 27.968 27.3778 27.8986C27.3682 27.8832 27.3447 27.6776 27.3254 27.4418C27.3061 27.206 27.2665 26.9561 27.2375 26.8864C27.2084 26.8168 27.1677 26.5652 27.147 26.3274C27.1264 26.0896 27.0846 25.8352 27.054 25.7623C27.0235 25.6893 26.984 25.4398 26.9661 25.2078C26.9482 24.9758 26.9088 24.7271 26.8784 24.6552C26.8479 24.5832 26.8067 24.3321 26.7867 24.0972C26.7668 23.8622 26.7255 23.6002 26.6949 23.515C26.6645 23.4297 26.624 23.1699 26.605 22.9374C26.586 22.705 26.5465 22.4669 26.5172 22.4081C26.4873 22.3482 26.4478 22.1032 26.4273 21.8503C26.4064 21.5935 26.3673 21.3526 26.3366 21.2908C26.3053 21.2281 26.268 20.9934 26.2481 20.7342C26.2287 20.4817 26.1885 20.2265 26.1561 20.1498C26.1245 20.0749 26.084 19.8238 26.0661 19.5918C26.0482 19.3598 26.0078 19.1088 25.9762 19.034C25.9436 18.957 25.9038 18.7013 25.8841 18.4442C25.8651 18.1947 25.8354 17.9724 25.818 17.9502C25.7664 17.8843 25.7375 17.7205 25.7031 17.2984C25.6852 17.0788 25.6465 16.851 25.6173 16.7921C25.5873 16.7321 25.5478 16.4871 25.5272 16.2333C25.507 15.9848 25.4656 15.7219 25.4352 15.6491C25.4048 15.5763 25.3643 15.3251 25.3451 15.0909C25.326 14.8567 25.2855 14.6056 25.2551 14.5329C25.2248 14.4602 25.1839 14.2103 25.1643 13.9774C25.1447 13.7445 25.1044 13.4849 25.0746 13.4005C25.0449 13.316 25.0038 13.0532 24.9831 12.8165C24.9626 12.5798 24.9222 12.3296 24.8933 12.2606C24.8645 12.1916 24.824 11.9405 24.8033 11.7026C24.7827 11.4647 24.742 11.2132 24.7129 11.1434C24.6838 11.0738 24.6443 10.8256 24.6252 10.5918C24.6061 10.3581 24.5665 10.1188 24.5372 10.06C24.5079 10.0012 24.4679 9.75897 24.4484 9.52155C24.4288 9.28422 24.3872 9.01791 24.3558 8.9298C24.3244 8.84169 24.2829 8.57601 24.2636 8.3394C24.2442 8.10279 24.2145 7.89139 24.1974 7.86961C24.148 7.80634 24.1242 7.66981 24.0855 7.22827C24.0655 7.00057 24.0243 6.75469 23.994 6.68197C23.9635 6.60916 23.924 6.35986 23.9061 6.12784C23.8882 5.89582 23.8495 5.64904 23.8201 5.57938C23.7906 5.50972 23.755 5.33557 23.741 5.19238L23.7153 4.93201H20.8962H18.077L18.0585 5.08501ZM21.1113 9.19926C21.1267 9.49536 21.1577 9.7353 21.1907 9.81441C21.2236 9.89307 21.2591 10.1659 21.281 10.5071C21.3018 10.833 21.3397 11.1293 21.3708 11.2109C21.4011 11.2902 21.4406 11.5889 21.4611 11.8949C21.4814 12.1984 21.5211 12.5001 21.5511 12.5789C21.5808 12.657 21.6213 12.9619 21.642 13.2629C21.6624 13.5616 21.7035 13.8789 21.7332 13.968C21.7629 14.0571 21.8029 14.373 21.8221 14.67C21.8419 14.9782 21.8799 15.2705 21.9108 15.3508C21.9412 15.4304 21.9806 15.7284 22.0011 16.0348C22.0214 16.3384 22.0611 16.6401 22.0911 16.7188C22.1208 16.797 22.1613 17.1019 22.182 17.4028C22.2024 17.7016 22.2425 18.0167 22.2709 18.1031C22.352 18.3498 22.182 18.4544 21.9704 18.288C21.9201 18.2484 21.8509 18.216 21.8166 18.216C21.7823 18.216 21.7151 18.1851 21.6672 18.1475C21.6192 18.1098 21.5136 18.061 21.4326 18.0392C21.3514 18.0174 21.2649 17.9753 21.2404 17.9457C21.2158 17.9162 21.1775 17.8919 21.1552 17.8918C21.0658 17.8914 20.844 17.8143 20.7972 17.7674C20.7698 17.7401 20.6532 17.7002 20.538 17.679C20.4228 17.6576 20.3028 17.617 20.2714 17.5885C20.24 17.5601 20.1287 17.5255 20.0241 17.5116C19.682 17.4662 19.5738 17.3002 19.6738 16.9738C19.7041 16.8749 19.7451 16.5672 19.765 16.29C19.7996 15.8089 19.8359 15.5686 19.8861 15.4873C19.8988 15.4668 19.9256 15.2049 19.9457 14.9051C19.9658 14.6054 20.0062 14.2922 20.0357 14.2091C20.065 14.1259 20.1046 13.8231 20.1236 13.536C20.1426 13.2489 20.1831 12.933 20.2135 12.834C20.2439 12.735 20.2851 12.4272 20.305 12.15C20.3396 11.6689 20.3759 11.4286 20.4261 11.3473C20.4388 11.3268 20.4656 11.0649 20.4857 10.7651C20.5058 10.4654 20.5462 10.1522 20.5757 10.0691C20.605 9.98595 20.6448 9.67779 20.6641 9.38421C20.7021 8.80794 20.7411 8.67366 20.8806 8.63811C21.0534 8.5941 21.0838 8.66817 21.1113 9.19926ZM16.4166 20.988C16.3461 21.0335 16.2726 21.0335 16.2726 20.988C16.2726 20.9682 16.3171 20.9523 16.3716 20.9525C16.4487 20.953 16.4587 20.9608 16.4166 20.988ZM15.4913 21.1162C15.5358 21.1333 15.5313 21.1734 15.4617 21.3772C15.4105 21.5274 15.3653 21.784 15.3417 22.059C15.3209 22.3016 15.28 22.5527 15.2507 22.617C15.2215 22.6813 15.1812 22.9395 15.1613 23.1905C15.1413 23.4416 15.1019 23.6927 15.0736 23.7485C15.0454 23.8044 15.0051 24.0532 14.9842 24.3015C14.9632 24.5499 14.9214 24.8172 14.8915 24.8955C14.8614 24.9739 14.8204 25.1979 14.8004 25.3933C14.7781 25.6109 14.7433 25.7714 14.7106 25.8075C14.6814 25.8399 14.6467 25.9554 14.6335 26.0642C14.6204 26.173 14.5784 26.3064 14.5403 26.3606C14.5021 26.4149 14.4614 26.507 14.4497 26.5652C14.4381 26.6233 14.398 26.7039 14.3606 26.744C14.3232 26.7842 14.2926 26.8349 14.2926 26.857C14.2926 26.9469 13.959 27.2167 13.8204 27.2388C13.7442 27.251 13.6635 27.2832 13.6409 27.3105C13.5877 27.3745 13.3216 27.3746 13.2296 27.3106C13.1905 27.2834 13.1019 27.2488 13.0326 27.2338C12.8289 27.1895 12.4663 26.8714 12.378 26.6595C12.3536 26.601 12.3063 26.5257 12.2728 26.4922C12.2393 26.4587 12.2001 26.3773 12.1855 26.3112C12.171 26.2451 12.133 26.151 12.1009 26.1021C11.9991 25.9468 12.0164 24.6664 12.1236 24.4193C12.1681 24.3166 12.2046 24.1893 12.2046 24.1362C12.2046 24.0832 12.2363 23.9809 12.2751 23.9089C12.3139 23.8369 12.3712 23.7213 12.4025 23.652C12.5047 23.4258 12.607 23.2393 12.6641 23.1747C12.695 23.14 12.7378 23.0819 12.7594 23.0458C12.8782 22.8469 12.9722 22.7269 13.1672 22.5255C13.5796 22.0996 13.9645 21.773 14.1076 21.7275C14.1499 21.7141 14.1846 21.6878 14.1846 21.6692C14.1846 21.6374 14.3604 21.5362 14.6526 21.3997C14.7219 21.3673 14.8039 21.3184 14.8348 21.291C14.9465 21.1919 15.3846 21.0752 15.4913 21.1162ZM18.1769 23.8096C18.2093 23.8486 18.2026 23.8633 18.1453 23.8783C18.0911 23.8924 18.0726 23.8798 18.0726 23.8287C18.0726 23.748 18.1189 23.7396 18.1769 23.8096ZM18.3606 24.3764C18.3606 24.3938 18.3363 24.408 18.3066 24.408C18.2755 24.408 18.2526 24.3755 18.2526 24.3316C18.2526 24.2678 18.2615 24.2626 18.3066 24.3C18.3363 24.3247 18.3606 24.359 18.3606 24.3764Z" fill="#5600D6"/>
<path fill-rule="evenodd" clip-rule="evenodd" d="M18.043 4.90319C18.0192 4.92695 17.9996 5.0039 17.9993 5.07419C17.9991 5.14448 17.9671 5.33159 17.9281 5.48999C17.8892 5.64839 17.8474 5.89949 17.8352 6.04799C17.823 6.19649 17.7831 6.44948 17.7462 6.61013C17.7095 6.77078 17.6624 7.06787 17.6417 7.27037C17.6209 7.47287 17.5801 7.72208 17.551 7.82423C17.522 7.92638 17.4815 8.17748 17.461 8.38223C17.4406 8.58698 17.3999 8.83808 17.3707 8.94023C17.3414 9.04238 17.3007 9.29609 17.2801 9.50399C17.2595 9.71189 17.2182 9.97109 17.1881 10.08C17.1582 10.1889 17.1243 10.4076 17.1128 10.566C17.1014 10.7244 17.0622 10.9755 17.0258 11.124C16.9894 11.2725 16.9426 11.556 16.9219 11.754C16.9012 11.952 16.8602 12.2031 16.8308 12.312C16.8014 12.4209 16.7674 12.6315 16.7552 12.78C16.743 12.9285 16.7031 13.1815 16.6662 13.3421C16.6295 13.5028 16.5828 13.796 16.5626 13.9937C16.5422 14.1915 16.5014 14.4466 16.4717 14.5606C16.442 14.6747 16.4016 14.9249 16.3818 15.1167C16.3621 15.3084 16.322 15.5617 16.2926 15.6796C16.2631 15.7975 16.2222 16.051 16.2015 16.243C16.1238 16.9641 16.0644 17.0859 15.7743 17.1184C15.6618 17.131 15.4645 17.1713 15.3358 17.2079C15.2071 17.2445 15.0211 17.2854 14.9226 17.2987C14.8241 17.3119 14.6864 17.3515 14.6166 17.3864C14.5468 17.4213 14.421 17.4604 14.337 17.4733C14.253 17.4862 14.1315 17.5289 14.067 17.5683C14.0025 17.6076 13.919 17.6398 13.8814 17.6399C13.8438 17.6399 13.7223 17.6827 13.6114 17.7349C13.0426 18.0023 12.7225 18.1656 12.5874 18.2572C12.5051 18.313 12.4259 18.359 12.4114 18.3594C12.3606 18.3606 11.7866 18.7652 11.4481 19.0383C10.7987 19.5624 9.94423 20.4952 9.6169 21.0373C9.55048 21.1475 9.47461 21.2554 9.44824 21.2773C9.42196 21.2991 9.39019 21.3633 9.37777 21.42C9.36535 21.4767 9.33241 21.5419 9.3046 21.565C9.24088 21.6178 8.81977 22.4821 8.81977 22.5599C8.81977 22.5824 8.77945 22.6875 8.73013 22.7934C8.68081 22.8993 8.64031 23.0233 8.64013 23.069C8.63995 23.1146 8.60746 23.2229 8.56795 23.3095C8.52853 23.3962 8.48047 23.5784 8.46112 23.7144C8.44186 23.8504 8.39776 24.0742 8.36311 24.2118C8.26762 24.5908 8.27032 26.1196 8.36698 26.478C8.40442 26.6166 8.45554 26.8353 8.48074 26.964C8.52484 27.19 8.66893 27.6409 8.74111 27.7788C8.76037 27.8158 8.83012 27.9594 8.89591 28.098C8.96179 28.2366 9.06925 28.431 9.13477 28.53C9.2002 28.629 9.27355 28.7401 9.29776 28.7771C9.61015 29.2536 10.4022 30.0385 10.8339 30.2992C11.1164 30.4698 11.7644 30.7733 11.9333 30.814C12.0321 30.8379 12.1322 30.8734 12.1559 30.8931C12.2069 30.9354 12.8108 31.0246 13.2584 31.056C13.6401 31.0827 14.475 30.9877 14.7418 30.8872C14.8408 30.8498 14.9704 30.8078 15.0298 30.7937C15.0892 30.7795 15.2091 30.7302 15.2962 30.684C15.3832 30.6378 15.4836 30.6 15.519 30.6C15.5545 30.6 15.5946 30.5821 15.6081 30.5602C15.6216 30.5383 15.6914 30.4935 15.7632 30.4605C15.9023 30.3966 16.1762 30.2213 16.2764 30.132C16.3097 30.1023 16.4144 30.0213 16.5092 29.952C16.7062 29.8078 16.9587 29.5599 17.0955 29.376C17.1471 29.3067 17.198 29.2419 17.2084 29.232C17.2188 29.2221 17.2594 29.1675 17.2986 29.1105C17.4833 28.842 17.5733 28.6959 17.6562 28.53C17.7056 28.431 17.76 28.3257 17.777 28.296C17.8675 28.1382 18.002 27.8325 18.0225 27.738C18.0354 27.6786 18.0741 27.5733 18.1086 27.504C18.143 27.4347 18.1828 27.3051 18.1971 27.216C18.2115 27.1269 18.2461 27.0048 18.274 26.9445C18.3019 26.8843 18.3489 26.698 18.3783 26.5306C18.4076 26.3631 18.4557 26.1207 18.4851 25.992C18.5143 25.8633 18.5386 25.6792 18.5391 25.5829C18.5394 25.4866 18.5711 25.276 18.6093 25.1149C18.6476 24.9538 18.6956 24.6518 18.7158 24.4437C18.7361 24.2357 18.7769 23.9603 18.8064 23.8317C18.836 23.7032 18.8702 23.4684 18.8824 23.31C18.8946 23.1516 18.9356 22.8519 18.9734 22.644C19.0111 22.4361 19.0577 22.0568 19.077 21.8012C19.1159 21.2848 19.1401 21.2328 19.3419 21.2328C19.5132 21.2328 19.8605 21.3552 20.0878 21.4955C20.1175 21.5139 20.2116 21.5609 20.297 21.6002C20.3824 21.6393 20.4768 21.6958 20.5066 21.7257C20.5365 21.7555 20.5723 21.78 20.5863 21.78C20.6003 21.78 20.6639 21.8245 20.7276 21.879C20.7914 21.9334 20.9623 22.0752 21.1075 22.194C21.2526 22.3128 21.435 22.4893 21.5127 22.5863C21.5902 22.6832 21.67 22.7804 21.6898 22.8023C21.7096 22.8241 21.7825 22.9201 21.8518 23.0155C21.9211 23.111 22.0142 23.2308 22.0588 23.2817C22.1033 23.3328 22.1398 23.3942 22.1398 23.4184C22.1398 23.4426 22.1733 23.5048 22.2142 23.5569C22.3003 23.6664 22.6798 24.4024 22.6798 24.4599C22.6798 24.4812 22.7203 24.5747 22.7698 24.6676C22.8193 24.7606 22.8603 24.8658 22.8609 24.9014C22.8615 24.9369 22.9019 25.047 22.9506 25.146C22.9993 25.245 23.0392 25.3584 23.0393 25.398C23.0394 25.4376 23.0784 25.5996 23.126 25.758C23.1735 25.9164 23.2286 26.1432 23.2484 26.262C23.2681 26.3808 23.3093 26.6076 23.3399 26.766C23.3706 26.9244 23.4116 27.2079 23.4311 27.396C23.4732 27.8028 23.5683 28.3537 23.6161 28.467L23.6502 28.548H25.5577H27.4653L27.5068 28.4703C27.5541 28.3819 27.5319 28.1192 27.4505 27.8069C27.4214 27.6953 27.381 27.4421 27.3607 27.2442C27.3404 27.0463 27.3003 26.793 27.2716 26.6812C27.2429 26.5694 27.2038 26.3238 27.1847 26.1355C27.1657 25.947 27.1252 25.6959 27.0947 25.5774C27.0643 25.4589 27.0228 25.2 27.0025 25.002C26.9821 24.804 26.9416 24.5514 26.9126 24.4406C26.8834 24.3298 26.8429 24.0787 26.8226 23.8826C26.8021 23.6865 26.7614 23.4344 26.732 23.3224C26.7026 23.2105 26.6687 23.0079 26.6567 22.8724C26.6447 22.7369 26.6035 22.4721 26.565 22.284C26.5265 22.0959 26.48 21.8043 26.4617 21.636C26.4433 21.4677 26.3951 21.1761 26.3545 20.988C26.3139 20.7999 26.2804 20.5731 26.28 20.484C26.2796 20.3949 26.2462 20.1843 26.2058 20.016C26.1655 19.8477 26.1185 19.5642 26.1015 19.386C26.0846 19.2078 26.0456 18.9648 26.015 18.846C25.9844 18.7272 25.9425 18.468 25.9218 18.27C25.9011 18.072 25.8601 17.8209 25.8305 17.712C25.8009 17.6031 25.7667 17.3844 25.7544 17.226C25.7422 17.0676 25.7007 16.8107 25.6623 16.6552C25.6238 16.4997 25.5776 16.2081 25.5595 16.0072C25.5415 15.8063 25.5024 15.561 25.4727 15.462C25.443 15.363 25.402 15.1119 25.3817 14.904C25.3613 14.6961 25.3205 14.4369 25.2908 14.328C25.2612 14.2191 25.2206 13.9703 25.2004 13.7752C25.1802 13.5801 25.1391 13.3253 25.109 13.209C25.0789 13.0927 25.0388 12.8349 25.0198 12.636C25.0008 12.4371 24.9611 12.1897 24.9314 12.0862C24.9017 11.9827 24.8615 11.7279 24.842 11.52C24.8225 11.3121 24.7818 11.061 24.7516 10.962C24.7214 10.863 24.6864 10.6524 24.674 10.494C24.6616 10.3356 24.6205 10.0703 24.5828 9.9044C24.5451 9.73853 24.4983 9.44891 24.4788 9.26081C24.4593 9.07271 24.4192 8.82575 24.3898 8.71199C24.3603 8.59823 24.3198 8.34713 24.2998 8.15399C24.2797 7.96085 24.2399 7.71173 24.2114 7.6004C24.1828 7.48907 24.1438 7.24382 24.1247 7.05545C24.1057 6.86699 24.0652 6.61589 24.0347 6.49745C24.0043 6.37892 23.9628 6.11999 23.9425 5.92199C23.9221 5.72399 23.8808 5.46803 23.8507 5.35319C23.8204 5.23844 23.7958 5.10596 23.7958 5.0588C23.7958 4.85036 23.9362 4.85999 20.8844 4.85999C18.756 4.85999 18.0758 4.87034 18.043 4.90319ZM23.7402 5.19236C23.7542 5.33555 23.7898 5.5097 23.8193 5.57936C23.8487 5.64902 23.8874 5.8958 23.9053 6.12782C23.9232 6.35984 23.9627 6.60914 23.9931 6.68195C24.0235 6.75467 24.0647 7.00055 24.0847 7.22825C24.1234 7.66979 24.1472 7.80632 24.1966 7.86959C24.2136 7.89137 24.2434 8.10278 24.2628 8.33939C24.282 8.576 24.3236 8.84168 24.355 8.92979C24.3864 9.0179 24.428 9.28421 24.4475 9.52154C24.4671 9.75896 24.507 10.0012 24.5364 10.06C24.5657 10.1188 24.6053 10.3581 24.6244 10.5918C24.6435 10.8256 24.683 11.0738 24.7121 11.1434C24.7412 11.2132 24.7819 11.4647 24.8025 11.7026C24.8232 11.9405 24.8637 12.1916 24.8925 12.2606C24.9214 12.3296 24.9618 12.5798 24.9823 12.8165C25.0029 13.0532 25.0441 13.3159 25.0738 13.4005C25.1036 13.4849 25.1439 13.7445 25.1635 13.9774C25.1831 14.2103 25.224 14.4602 25.2543 14.5329C25.2847 14.6056 25.3252 14.8567 25.3443 15.0909C25.3635 15.3251 25.404 15.5763 25.4344 15.6491C25.4648 15.7219 25.5062 15.9848 25.5264 16.2333C25.547 16.4871 25.5865 16.7321 25.6165 16.7921C25.6457 16.851 25.6844 17.0788 25.7023 17.2984C25.7367 17.7205 25.7656 17.8843 25.8172 17.9502C25.8345 17.9724 25.8642 18.1947 25.8833 18.4442C25.9029 18.7013 25.9428 18.957 25.9754 19.034C26.007 19.1088 26.0474 19.3598 26.0653 19.5918C26.0832 19.8238 26.1237 20.0749 26.1553 20.1498C26.1877 20.2265 26.2278 20.4817 26.2473 20.7342C26.2672 20.9934 26.3045 21.2281 26.3358 21.2908C26.3665 21.3526 26.4056 21.5935 26.4265 21.8503C26.447 22.1032 26.4865 22.3482 26.5164 22.4081C26.5457 22.4669 26.5852 22.705 26.6042 22.9374C26.6232 23.1699 26.6637 23.4297 26.6941 23.515C26.7246 23.6002 26.7659 23.8622 26.7859 24.0972C26.8059 24.3321 26.8471 24.5832 26.8776 24.6552C26.908 24.7271 26.9474 24.9758 26.9653 25.2078C26.9832 25.4398 27.0227 25.6893 27.0532 25.7623C27.0837 25.8352 27.1256 26.0896 27.1462 26.3274C27.1669 26.5652 27.2076 26.8168 27.2367 26.8864C27.2657 26.9561 27.3053 27.206 27.3246 27.4418C27.3438 27.6776 27.3674 27.8832 27.377 27.8986C27.4198 27.968 27.4985 28.3399 27.4803 28.3873C27.4629 28.4326 27.1948 28.44 25.5598 28.44C23.427 28.44 23.6158 28.4676 23.6158 28.1559C23.6158 28.0622 23.5843 27.8651 23.5458 27.7177C23.5072 27.5705 23.4607 27.2467 23.4424 26.9983C23.4224 26.7254 23.3874 26.5045 23.3542 26.4403C23.3241 26.3818 23.2878 26.2206 23.2737 26.082C23.2596 25.9434 23.2165 25.7572 23.178 25.6681C23.1395 25.5791 23.0991 25.4333 23.0882 25.3441C23.0774 25.255 23.0389 25.1397 23.0027 25.0879C22.9665 25.0362 22.9261 24.9309 22.913 24.8539C22.8998 24.777 22.8593 24.6717 22.823 24.6199C22.7866 24.5682 22.7454 24.4647 22.7314 24.39C22.7174 24.3153 22.6762 24.2244 22.6397 24.1879C22.6034 24.1516 22.563 24.0769 22.55 24.0219C22.5369 23.967 22.4973 23.8896 22.4617 23.85C22.4262 23.8104 22.3857 23.7323 22.3719 23.6765C22.358 23.6206 22.3164 23.556 22.2793 23.5328C22.2421 23.5096 22.2118 23.462 22.2118 23.427C22.2118 23.392 22.1632 23.3125 22.1038 23.2503C22.0444 23.1881 21.9958 23.1156 21.9958 23.089C21.9958 23.0624 21.9634 23.0204 21.9238 22.9956C21.8842 22.9709 21.8518 22.9373 21.8518 22.9209C21.8518 22.8221 21.0024 21.9448 20.8647 21.9013C20.8234 21.8883 20.7686 21.8476 20.7427 21.8109C20.7169 21.7741 20.6743 21.744 20.6481 21.744C20.622 21.744 20.5785 21.7174 20.5517 21.685C20.5248 21.6526 20.4378 21.5956 20.3583 21.5581C20.2788 21.5208 20.1652 21.464 20.1058 21.432C19.7933 21.2637 19.6488 21.2099 19.3955 21.1681C19.0066 21.1037 19.0078 21.1022 19.0078 21.6584C19.0078 21.9086 18.9931 22.104 18.9744 22.104C18.8502 22.104 18.8278 22.2132 18.8278 22.8181C18.8278 23.4067 18.8262 23.4196 18.7468 23.4544C18.6683 23.4889 18.6655 23.5076 18.656 24.0668C18.6464 24.6242 18.6434 24.6449 18.566 24.6788C18.489 24.7126 18.485 24.7378 18.4656 25.308C18.4544 25.6347 18.4272 25.9447 18.405 25.9969C18.3828 26.0491 18.3482 26.2386 18.3283 26.4181C18.3082 26.5975 18.2661 26.7836 18.2347 26.8316C18.2032 26.8796 18.1672 27.006 18.1547 27.1124C18.1421 27.2189 18.094 27.3773 18.0478 27.4644C18.0016 27.5514 17.9638 27.6667 17.9638 27.7205C17.9638 27.7743 17.9329 27.8575 17.8953 27.9054C17.8576 27.9534 17.8085 28.0601 17.7863 28.1427C17.7641 28.2253 17.7287 28.3036 17.7078 28.3164C17.6869 28.3294 17.6378 28.407 17.5986 28.489C17.4952 28.7052 17.3978 28.8797 17.3342 28.962C17.2493 29.0721 16.8513 29.5693 16.8155 29.61C16.7981 29.6298 16.7294 29.6899 16.6628 29.7436C16.5962 29.7974 16.4438 29.9208 16.3241 30.0179C16.2043 30.1151 16.0706 30.2059 16.0271 30.2196C15.9834 30.2335 15.9478 30.2597 15.9478 30.278C15.9478 30.2962 15.8877 30.3362 15.8141 30.3669C15.7406 30.3976 15.6555 30.4452 15.6251 30.4726C15.5947 30.5 15.5212 30.5337 15.4618 30.5474C15.4024 30.5612 15.289 30.6088 15.2098 30.6532C15.1306 30.6975 14.9929 30.7451 14.9038 30.7588C14.8147 30.7724 14.7018 30.8098 14.6529 30.8417C14.3857 31.0166 12.5586 31.0009 12.1678 30.8204C12.0787 30.7793 11.9563 30.7453 11.8958 30.7448C11.8352 30.7444 11.7308 30.7035 11.6638 30.654C11.5967 30.6045 11.5223 30.564 11.4984 30.564C11.4366 30.564 11.0495 30.3605 10.9497 30.2755C10.9035 30.2362 10.8441 30.204 10.8178 30.204C10.7914 30.204 10.7265 30.1675 10.6735 30.123C10.6205 30.0784 10.519 29.9934 10.4479 29.934C10.1177 29.6582 9.45013 28.9507 9.41467 28.8389C9.40324 28.803 9.36193 28.7445 9.32287 28.7092C9.28372 28.6738 9.25177 28.6223 9.25177 28.5948C9.25177 28.5672 9.21271 28.5057 9.16501 28.4579C9.11722 28.4102 9.06772 28.3235 9.05494 28.2653C9.04216 28.2071 9.00184 28.1325 8.9653 28.0993C8.92876 28.0663 8.8888 27.9853 8.87638 27.9192C8.86405 27.8533 8.82454 27.7612 8.78872 27.7147C8.75281 27.6681 8.70466 27.5341 8.68162 27.4168C8.65858 27.2995 8.61664 27.178 8.58856 27.1468C8.55904 27.114 8.52061 26.9384 8.49766 26.7318C8.47579 26.5348 8.43394 26.3257 8.40478 26.2672C8.32675 26.1108 8.32783 24.5821 8.40613 24.3947C8.43601 24.3231 8.47732 24.1006 8.49784 23.9004C8.51845 23.7001 8.55814 23.5012 8.58604 23.4586C8.61403 23.4159 8.65462 23.2922 8.6764 23.1835C8.69809 23.0749 8.74561 22.9293 8.78197 22.86C8.81833 22.7907 8.8591 22.6666 8.87251 22.5842C8.88601 22.5018 8.92705 22.4072 8.96377 22.374C9.00049 22.3408 9.04099 22.2517 9.05377 22.176C9.06655 22.1003 9.10795 22.0105 9.14566 21.9763C9.18346 21.9421 9.22468 21.8592 9.23728 21.7921C9.24988 21.7249 9.28876 21.6547 9.32386 21.636C9.35887 21.6172 9.39865 21.5569 9.41233 21.502C9.42592 21.447 9.46642 21.3696 9.50233 21.33C9.53815 21.2904 9.57856 21.2215 9.59206 21.177C9.60556 21.1324 9.63256 21.096 9.652 21.096C9.67135 21.096 9.71482 21.0351 9.74857 20.9605C9.78223 20.886 9.84217 20.7899 9.88177 20.7468C9.92137 20.7038 9.98617 20.6253 10.0258 20.5725C10.3327 20.1627 11.4919 19.016 11.6908 18.9254C11.7353 18.905 11.7718 18.8667 11.7718 18.8402C11.7718 18.8137 11.8013 18.792 11.8373 18.792C11.8733 18.792 11.9573 18.7434 12.0238 18.684C12.0903 18.6246 12.1652 18.576 12.1902 18.576C12.2152 18.576 12.2569 18.5462 12.2827 18.5098C12.3086 18.4734 12.3715 18.4333 12.4226 18.4207C12.4736 18.4081 12.5595 18.3568 12.6135 18.3069C12.6674 18.2569 12.7422 18.216 12.7798 18.216C12.8173 18.216 12.8917 18.1755 12.9452 18.126C12.9986 18.0765 13.0796 18.036 13.1252 18.036C13.1707 18.036 13.2517 17.9955 13.3052 17.946C13.3616 17.8937 13.4453 17.856 13.505 17.856C13.5615 17.856 13.639 17.8248 13.6772 17.7866C13.7153 17.7484 13.8208 17.7061 13.9116 17.6925C14.0023 17.6788 14.1128 17.6395 14.1572 17.6049C14.2015 17.5703 14.3414 17.5241 14.468 17.5019C14.5945 17.4799 14.7241 17.4386 14.756 17.4102C14.7878 17.382 14.9551 17.3416 15.1278 17.3208C15.3005 17.2999 15.49 17.2579 15.549 17.2274C15.6079 17.1969 15.7096 17.1718 15.775 17.1715C16.1137 17.1701 16.1889 17.0528 16.24 16.4454C16.2605 16.2015 16.3014 15.9489 16.3307 15.8841C16.3601 15.8192 16.4015 15.56 16.4227 15.3081C16.444 15.0561 16.4847 14.804 16.5132 14.7478C16.5422 14.6903 16.5811 14.4391 16.6019 14.1741C16.6251 13.8784 16.6585 13.6727 16.6914 13.6225C16.7243 13.5723 16.7582 13.3633 16.7823 13.0621C16.8039 12.7938 16.8434 12.5375 16.8722 12.4811C16.9004 12.4257 16.9398 12.1827 16.9596 11.9411C16.9794 11.6996 17.02 11.449 17.0497 11.3842C17.0795 11.3194 17.121 11.0602 17.1419 10.8082C17.163 10.5539 17.2031 10.3048 17.2321 10.2485C17.2617 10.1909 17.2994 9.94967 17.3194 9.69047C17.3411 9.41003 17.3758 9.19556 17.4096 9.13445C17.4434 9.07316 17.4791 8.85176 17.5026 8.55845C17.5249 8.27963 17.5631 8.03816 17.5946 7.97642C17.6254 7.91603 17.663 7.68482 17.6824 7.43642C17.7011 7.19747 17.7406 6.94925 17.7699 6.88472C17.7993 6.82028 17.8404 6.56918 17.8611 6.32672C17.8819 6.08435 17.9211 5.83586 17.9484 5.77457C17.9756 5.71337 18.0071 5.56757 18.0185 5.45057C18.0298 5.33366 18.0475 5.16914 18.0576 5.08499L18.0762 4.93199H20.8953H23.7145L23.7402 5.19236ZM20.8798 8.6381C20.7403 8.67365 20.7013 8.80793 20.6633 9.3842C20.644 9.67778 20.6042 9.98594 20.5749 10.0691C20.5454 10.1522 20.505 10.4654 20.4849 10.7651C20.4648 11.0649 20.438 11.3268 20.4253 11.3473C20.3751 11.4286 20.3388 11.6689 20.3042 12.15C20.2843 12.4272 20.2431 12.735 20.2127 12.834C20.1823 12.933 20.1418 13.2489 20.1228 13.536C20.1038 13.8231 20.0642 14.1259 20.0349 14.2091C20.0054 14.2922 19.965 14.6054 19.9449 14.9051C19.9248 15.2049 19.898 15.4668 19.8853 15.4873C19.8351 15.5686 19.7988 15.8089 19.7642 16.29C19.7443 16.5672 19.7033 16.8749 19.673 16.9738C19.573 17.3002 19.6812 17.4662 20.0233 17.5116C20.1279 17.5255 20.2392 17.5601 20.2706 17.5885C20.302 17.617 20.4219 17.6576 20.5371 17.679C20.6523 17.7002 20.769 17.7401 20.7963 17.7674C20.8432 17.8143 21.065 17.8914 21.1544 17.8918C21.1767 17.8919 21.215 17.9162 21.2396 17.9457C21.2641 17.9753 21.3506 18.0174 21.4317 18.0392C21.5128 18.061 21.6184 18.1098 21.6664 18.1475C21.7143 18.1851 21.7815 18.216 21.8158 18.216C21.8501 18.216 21.9193 18.2484 21.9696 18.288C22.1812 18.4544 22.3512 18.3498 22.2701 18.1031C22.2417 18.0167 22.2016 17.7016 22.1812 17.4028C22.1605 17.1019 22.12 16.797 22.0903 16.7188C22.0603 16.6401 22.0206 16.3384 22.0003 16.0348C21.9798 15.7284 21.9404 15.4304 21.91 15.3508C21.8791 15.2705 21.8411 14.9782 21.8213 14.67C21.8021 14.373 21.7621 14.0571 21.7324 13.968C21.7027 13.8789 21.6616 13.5616 21.6412 13.2628C21.6205 12.9619 21.58 12.657 21.5503 12.5788C21.5203 12.5001 21.4806 12.1984 21.4603 11.8948C21.4398 11.5889 21.4003 11.2902 21.37 11.2108C21.3389 11.1293 21.301 10.833 21.2802 10.507C21.2583 10.1659 21.2228 9.89306 21.1899 9.8144C21.1569 9.73529 21.1259 9.49535 21.1105 9.19925C21.083 8.66816 21.0526 8.59409 20.8798 8.6381ZM21.0023 8.77499C21.0129 8.80964 21.0381 9.04049 21.0583 9.28799C21.0955 9.74366 21.149 10.1284 21.1826 10.1829C21.1928 10.1993 21.2184 10.4273 21.2396 10.6897C21.2607 10.9519 21.3081 11.323 21.3448 11.5142C21.3814 11.7055 21.422 12.024 21.435 12.222C21.4479 12.42 21.4826 12.686 21.512 12.8132C21.5415 12.9405 21.5819 13.2443 21.6017 13.4886C21.6362 13.914 21.6878 14.2665 21.724 14.3251C21.7334 14.3403 21.7584 14.5673 21.7796 14.8297C21.8007 15.0919 21.8482 15.463 21.8849 15.6542C21.9216 15.8455 21.9621 16.164 21.9748 16.362C21.9875 16.56 22.0212 16.8192 22.0498 16.938C22.124 17.2472 22.194 18.1761 22.1468 18.2234C22.1044 18.2658 21.8063 18.1778 21.7107 18.0947C21.6794 18.0674 21.589 18.0248 21.5098 18C21.4306 17.9752 21.3415 17.9351 21.3118 17.9109C21.2821 17.8867 21.1849 17.8417 21.0958 17.8108C21.0067 17.78 20.8528 17.7268 20.7538 17.6925C20.6548 17.6582 20.5067 17.601 20.4246 17.5655C20.3427 17.5298 20.2131 17.4903 20.1366 17.4776C19.8244 17.4257 19.6656 17.281 19.7311 17.1081C19.7481 17.0631 19.7793 16.812 19.8005 16.5501C19.8215 16.2883 19.863 15.9606 19.8927 15.822C19.9223 15.6834 19.9626 15.378 19.9823 15.1435C20.0021 14.9089 20.0501 14.5553 20.089 14.3578C20.1279 14.1603 20.1598 13.92 20.1598 13.824C20.1598 13.6116 20.2226 13.1261 20.2693 12.978C20.2879 12.9186 20.3203 12.6594 20.341 12.402C20.3618 12.1446 20.4031 11.8206 20.4328 11.682C20.4625 11.5434 20.5017 11.2437 20.5199 11.016C20.538 10.7883 20.586 10.4348 20.6263 10.2304C20.6667 10.0259 20.6998 9.78146 20.6998 9.68705C20.6998 9.12023 20.9119 8.4806 21.0023 8.77499ZM16.2718 20.988C16.2718 21.0335 16.3453 21.0335 16.4158 20.988C16.4579 20.9608 16.4479 20.953 16.3708 20.9525C16.3163 20.9523 16.2718 20.9682 16.2718 20.988ZM15.1039 21.1722C14.9863 21.2102 14.8648 21.2637 14.8339 21.291C14.8031 21.3184 14.7211 21.3673 14.6518 21.3997C14.3595 21.5362 14.1838 21.6374 14.1838 21.6692C14.1838 21.6878 14.1491 21.7141 14.1068 21.7275C13.9637 21.773 13.5788 22.0996 13.1664 22.5255C12.9714 22.7269 12.8774 22.8469 12.7585 23.0458C12.737 23.0819 12.6942 23.14 12.6633 23.1747C12.6062 23.2393 12.5038 23.4258 12.4017 23.652C12.3704 23.7213 12.313 23.8369 12.2742 23.9088C12.2355 23.9809 12.2038 24.0832 12.2038 24.1362C12.2038 24.1893 12.1673 24.3166 12.1228 24.4193C12.0156 24.6664 11.9983 25.9468 12.1001 26.1021C12.1321 26.151 12.1702 26.2451 12.1847 26.3112C12.1993 26.3773 12.2385 26.4587 12.272 26.4922C12.3055 26.5257 12.3528 26.601 12.3772 26.6595C12.4655 26.8714 12.8281 27.1895 13.0318 27.2338C13.1011 27.2488 13.1897 27.2834 13.2288 27.3106C13.3208 27.3746 13.5869 27.3745 13.6401 27.3105C13.6627 27.2832 13.7434 27.251 13.8195 27.2388C13.9581 27.2167 14.2918 26.9469 14.2918 26.857C14.2918 26.8349 14.3224 26.7842 14.3598 26.744C14.3972 26.7039 14.4373 26.6233 14.4489 26.5652C14.4606 26.507 14.5013 26.4149 14.5395 26.3606C14.5776 26.3064 14.6196 26.173 14.6327 26.0642C14.6458 25.9554 14.6806 25.8399 14.7098 25.8075C14.7425 25.7714 14.7772 25.6109 14.7996 25.3933C14.8196 25.1979 14.8606 24.9739 14.8906 24.8955C14.9206 24.8172 14.9624 24.5499 14.9833 24.3015C15.0043 24.0532 15.0445 23.8044 15.0728 23.7485C15.1011 23.6927 15.1405 23.4416 15.1604 23.1905C15.1803 22.9395 15.2207 22.6813 15.2499 22.617C15.2792 22.5527 15.3201 22.3016 15.3409 22.059C15.3645 21.784 15.4097 21.5274 15.4609 21.3772C15.5684 21.0619 15.5243 21.0365 15.1039 21.1722ZM15.3062 21.2434C15.3668 21.2759 15.3762 21.3062 15.359 21.4144C15.3476 21.4868 15.3208 21.6999 15.2996 21.888C15.2784 22.0761 15.2382 22.3191 15.2102 22.428C15.1822 22.5369 15.1428 22.7896 15.1226 22.9896C15.1022 23.1896 15.0605 23.4488 15.0296 23.5656C14.9987 23.6824 14.9643 23.9076 14.9528 24.066C14.9414 24.2244 14.9024 24.4755 14.8662 24.624C14.83 24.7725 14.7843 25.0398 14.7647 25.218C14.7452 25.3962 14.7103 25.5906 14.6873 25.65C14.6643 25.7094 14.6236 25.8552 14.597 25.974C14.3631 27.0171 13.6998 27.4935 12.9721 27.1412C12.7034 27.0112 12.2398 26.4643 12.2398 26.2774C12.2398 26.2443 12.2079 26.1451 12.1689 26.0571C12.0378 25.7606 12.0393 24.7561 12.1712 24.5096C12.1905 24.4737 12.2233 24.3517 12.2442 24.2387C12.2796 24.0474 12.3196 23.9458 12.4683 23.67C12.5003 23.6106 12.5511 23.5098 12.5812 23.4459C12.7579 23.0713 13.4887 22.2156 13.8058 22.012C13.8652 21.9739 14.0029 21.8761 14.1118 21.7948C14.2207 21.7134 14.3526 21.6241 14.4049 21.5964C14.9499 21.3077 15.0806 21.2453 15.2211 21.2071C15.2274 21.2053 15.2657 21.2217 15.3062 21.2434ZM18.0718 23.8287C18.0718 23.8798 18.0903 23.8924 18.1445 23.8783C18.2017 23.8633 18.2085 23.8486 18.1761 23.8096C18.118 23.7396 18.0718 23.748 18.0718 23.8287ZM18.2518 24.3316C18.2518 24.3755 18.2747 24.408 18.3058 24.408C18.3355 24.408 18.3598 24.3938 18.3598 24.3764C18.3598 24.359 18.3355 24.3246 18.3058 24.3C18.2607 24.2626 18.2518 24.2678 18.2518 24.3316Z" fill="#FCB4AC"/>
<path fill-rule="evenodd" clip-rule="evenodd" d="M17.9861 4.8529C17.9762 4.86901 17.9565 4.97035 17.9424 5.07808C17.9283 5.18581 17.8923 5.31154 17.8625 5.35753C17.8257 5.41405 17.7999 5.58919 17.7827 5.90068C17.7637 6.24097 17.741 6.38479 17.6954 6.45445C17.6504 6.52294 17.6252 6.67612 17.6027 7.01632C17.5815 7.3351 17.5522 7.52176 17.5103 7.60258C17.4691 7.68232 17.4398 7.86457 17.4206 8.16004C17.4014 8.45641 17.3722 8.63776 17.3306 8.71804C17.2891 8.79841 17.2598 8.97976 17.2406 9.27604C17.2214 9.57133 17.1921 9.75385 17.1509 9.83341C17.1097 9.91315 17.0793 10.1029 17.0577 10.4148C17.0362 10.725 17.0073 10.9057 16.9701 10.9625C16.9329 11.0192 16.9035 11.2028 16.8811 11.5189C16.8583 11.842 16.8297 12.0181 16.7906 12.0778C16.7513 12.1378 16.7242 12.3065 16.7037 12.618C16.683 12.9346 16.6565 13.0978 16.6155 13.1603C16.5749 13.2222 16.5469 13.3922 16.5237 13.716C16.5021 14.0178 16.4698 14.2223 16.432 14.2953C16.3945 14.3679 16.3622 14.5698 16.3416 14.8609C16.321 15.1514 16.2878 15.3594 16.2488 15.4415C16.2089 15.5256 16.1793 15.718 16.1622 16.0041C16.1452 16.2902 16.1164 16.4775 16.078 16.5517C16.0459 16.6138 16.0073 16.7504 15.9923 16.8553L15.965 17.046L15.6396 17.0642C15.4099 17.077 15.2847 17.1015 15.2144 17.1476C15.1592 17.1839 15.0044 17.2247 14.8668 17.2394C14.7272 17.2544 14.5908 17.2906 14.5544 17.3226C14.5188 17.3537 14.3844 17.3973 14.2557 17.4192C14.127 17.4413 14.0047 17.4824 13.9839 17.5107C13.9631 17.5389 13.8821 17.573 13.8039 17.5864C13.7257 17.5998 13.6174 17.642 13.5631 17.6802C13.5088 17.7184 13.4116 17.7599 13.3471 17.7724C13.2826 17.7849 13.1839 17.8331 13.1279 17.8796C13.072 17.926 12.9889 17.964 12.9434 17.964C12.8978 17.964 12.8385 17.9906 12.8117 18.023C12.7848 18.0554 12.6937 18.1114 12.6093 18.1476C12.5249 18.1839 12.4557 18.227 12.4557 18.2435C12.4557 18.26 12.399 18.294 12.3297 18.3191C12.2604 18.3442 12.2037 18.3796 12.2037 18.3979C12.2037 18.4161 12.1436 18.4561 12.0702 18.4868C11.9967 18.5175 11.9088 18.5704 11.8748 18.6044C11.8409 18.6383 11.7538 18.7065 11.6814 18.756C11.609 18.8055 11.502 18.8906 11.4435 18.945C11.3851 18.9995 11.3225 19.044 11.3046 19.044C11.2257 19.044 10.0077 20.311 10.0077 20.3931C10.0077 20.4138 9.97534 20.4509 9.93574 20.4756C9.89614 20.5004 9.86374 20.543 9.86374 20.5701C9.86374 20.5974 9.82324 20.6463 9.77374 20.6787C9.72424 20.7112 9.68374 20.7608 9.68374 20.789C9.68374 20.8172 9.64324 20.884 9.59374 20.9374C9.54424 20.9908 9.50374 21.0566 9.50374 21.0835C9.50374 21.1104 9.46405 21.167 9.41554 21.2092C9.36703 21.2513 9.31618 21.3363 9.30268 21.398C9.28918 21.4596 9.24967 21.5299 9.21502 21.5542C9.18037 21.5785 9.14077 21.6433 9.12718 21.6982C9.11359 21.7531 9.07336 21.8304 9.0379 21.87C9.00244 21.9096 8.96311 21.997 8.95042 22.0641C8.93782 22.1313 8.90173 22.2051 8.87032 22.2281C8.83882 22.2511 8.79832 22.3491 8.78023 22.4458C8.76214 22.5426 8.71714 22.6552 8.68024 22.6959C8.64172 22.7384 8.60428 22.8501 8.59231 22.958C8.58079 23.0614 8.53975 23.191 8.50114 23.246C8.45398 23.3132 8.42455 23.4311 8.41159 23.6048C8.39953 23.766 8.36767 23.9011 8.32699 23.9632C8.22655 24.1166 8.22709 26.5362 8.32771 26.6898C8.36389 26.7451 8.40169 26.8821 8.41159 26.9942C8.43112 27.2153 8.48656 27.396 8.53489 27.396C8.55154 27.396 8.57593 27.4766 8.58898 27.5751C8.60239 27.6756 8.65036 27.8051 8.69824 27.8701C8.74531 27.9338 8.78374 28.0209 8.78374 28.0634C8.78374 28.106 8.81551 28.1696 8.85439 28.2047C8.89327 28.2399 8.94313 28.3235 8.96518 28.3903C8.98723 28.4573 9.02044 28.512 9.0388 28.512C9.05725 28.512 9.09847 28.5773 9.13033 28.6571C9.16228 28.7368 9.21889 28.8184 9.25606 28.8383C9.29332 28.8582 9.32374 28.8981 9.32374 28.927C9.32374 28.9558 9.35614 28.9996 9.39574 29.0244C9.43534 29.0491 9.46774 29.0862 9.46774 29.1069C9.46774 29.2231 10.3886 30.132 10.5064 30.132C10.5278 30.132 10.562 30.1633 10.5825 30.2016C10.6029 30.2398 10.6561 30.2827 10.7007 30.2967C10.7453 30.3108 10.802 30.3512 10.8267 30.3863C10.8516 30.4215 10.9245 30.4619 10.9887 30.476C11.0531 30.4901 11.1264 30.5312 11.1517 30.5674C11.1771 30.6035 11.2581 30.6444 11.3317 30.6581C11.4054 30.6717 11.4858 30.7113 11.5104 30.7461C11.5377 30.7848 11.628 30.8192 11.7437 30.8351C11.8475 30.8494 11.9503 30.8855 11.9721 30.9154C12.0146 30.9734 12.268 31.0263 12.52 31.0298C12.6049 31.031 12.7175 31.0604 12.7704 31.095C12.9068 31.1844 13.9775 31.1889 14.1134 31.1006C14.1652 31.0668 14.3278 31.0328 14.507 31.0181C14.7271 31 14.8326 30.9744 14.885 30.9268C14.9251 30.8903 15.035 30.8495 15.1295 30.836C15.224 30.8225 15.3293 30.7814 15.3635 30.7448C15.3977 30.7083 15.4869 30.667 15.5617 30.653C15.6365 30.6391 15.713 30.599 15.7317 30.564C15.7505 30.529 15.8227 30.4897 15.8923 30.4766C15.9632 30.4634 16.0355 30.4219 16.0565 30.3825C16.0773 30.3437 16.1187 30.312 16.1486 30.312C16.1786 30.312 16.2395 30.2756 16.2841 30.231C16.3287 30.1865 16.4094 30.1299 16.4634 30.1053C16.5175 30.0807 16.5716 30.035 16.5837 30.0036C16.5957 29.9722 16.6439 29.9319 16.6907 29.9141C16.7375 29.8964 16.7757 29.8597 16.7757 29.8327C16.7757 29.8057 16.8162 29.7651 16.8657 29.7426C16.9152 29.72 16.9557 29.6874 16.9557 29.6701C16.9557 29.6528 17.0003 29.5894 17.0547 29.5292C17.3099 29.2471 17.3517 29.19 17.3517 29.1234C17.3517 29.0841 17.3759 29.052 17.4053 29.052C17.4347 29.052 17.4824 28.9953 17.5114 28.926C17.5404 28.8567 17.5784 28.8 17.5961 28.8C17.6357 28.8 17.7117 28.6387 17.7117 28.5549C17.7117 28.5211 17.7433 28.4736 17.7819 28.4495C17.8205 28.4253 17.8636 28.3445 17.8774 28.2698C17.8913 28.1951 17.9317 28.1135 17.9671 28.0885C18.0052 28.0615 18.0415 27.9733 18.0559 27.8725C18.0693 27.7787 18.1103 27.6692 18.1468 27.629C18.1868 27.5851 18.2232 27.4704 18.2383 27.341C18.2525 27.2191 18.2864 27.1091 18.3164 27.0869C18.3721 27.046 18.426 26.7915 18.4296 26.5528C18.4307 26.4747 18.4584 26.3822 18.4914 26.3458C18.5341 26.2985 18.5627 26.1545 18.5919 25.8389C18.6144 25.5965 18.6546 25.3585 18.6811 25.3103C18.7078 25.262 18.7431 25.0258 18.7599 24.7854C18.7774 24.5331 18.8148 24.2896 18.8482 24.2098C18.8827 24.1271 18.9198 23.875 18.9404 23.5827C18.9593 23.314 18.9995 23.0302 19.0297 22.9523C19.0626 22.8672 19.0983 22.5862 19.1188 22.2503C19.1528 21.6927 19.2287 21.3153 19.3081 21.3083C19.4532 21.2956 19.5988 21.327 19.6549 21.3832C19.6908 21.4191 19.7878 21.4598 19.8705 21.4738C19.9531 21.4878 20.0295 21.5221 20.0403 21.5501C20.051 21.5781 20.1298 21.6186 20.2154 21.6401C20.3009 21.6617 20.3798 21.7027 20.3908 21.7313C20.4017 21.7598 20.4676 21.807 20.5372 21.8361C20.6068 21.8651 20.6637 21.9046 20.6637 21.9236C20.6637 21.9425 20.7083 21.982 20.7627 22.0111C20.8172 22.0402 20.9363 22.1357 21.0276 22.2233C21.1189 22.3109 21.208 22.3888 21.2256 22.3963C21.2432 22.4038 21.3447 22.5153 21.451 22.644C21.5573 22.7727 21.6666 22.891 21.694 22.9068C21.7213 22.9226 21.7437 22.9561 21.7437 22.9813C21.7437 23.0064 21.7842 23.0622 21.8337 23.1053C21.8832 23.1483 21.9237 23.2016 21.9237 23.2236C21.9237 23.2456 21.9642 23.3117 22.0137 23.3706C22.0632 23.4294 22.1037 23.4996 22.1037 23.5267C22.1037 23.5538 22.135 23.5978 22.1732 23.6246C22.2114 23.6514 22.2544 23.7211 22.2687 23.7796C22.283 23.8381 22.3327 23.9318 22.3792 23.9878C22.4257 24.0438 22.4637 24.1263 22.4637 24.1712C22.4637 24.2161 22.495 24.2811 22.5331 24.3157C22.5713 24.3501 22.6131 24.4413 22.6261 24.5182C22.639 24.595 22.6817 24.6985 22.7208 24.7482C22.7598 24.798 22.8052 24.9227 22.8214 25.0256C22.8377 25.1285 22.8765 25.2311 22.9075 25.2539C22.9441 25.2806 22.9765 25.3943 22.9988 25.5743C23.019 25.7377 23.0575 25.88 23.0915 25.9176C23.1315 25.9618 23.1601 26.1005 23.1832 26.3638C23.2021 26.5791 23.2418 26.7943 23.2742 26.8568C23.3137 26.9332 23.3409 27.1328 23.3615 27.4969C23.3808 27.8401 23.4111 28.0703 23.4475 28.152C23.4784 28.2213 23.5134 28.3382 23.5251 28.4118C23.5665 28.6706 23.4441 28.656 25.5759 28.656C27.6677 28.656 27.5508 28.6685 27.592 28.44C27.6244 28.2596 27.5535 27.6512 27.4918 27.5808C27.4565 27.5405 27.4321 27.3799 27.4144 27.072C27.3988 26.7973 27.367 26.573 27.333 26.496C27.3024 26.4267 27.2575 26.1587 27.2333 25.9004C27.2086 25.6373 27.1652 25.384 27.1346 25.3244C27.1015 25.2598 27.07 25.0555 27.0544 24.804C27.0378 24.5362 27.006 24.3378 26.9644 24.242C26.9231 24.1468 26.8912 23.9481 26.8746 23.684C26.8595 23.441 26.8271 23.23 26.7951 23.166C26.7654 23.1066 26.7201 22.8393 26.6944 22.572C26.6688 22.3047 26.6235 22.0293 26.5939 21.96C26.5643 21.8907 26.5283 21.6558 26.5139 21.438C26.4989 21.2101 26.4601 20.9656 26.4226 20.862C26.3861 20.7615 26.3461 20.5156 26.332 20.3049C26.3182 20.0975 26.2822 19.8626 26.2523 19.7829C26.2223 19.7032 26.1775 19.4232 26.1528 19.1606C26.128 18.897 26.0876 18.6588 26.0627 18.6287C26.0374 18.5983 25.9975 18.3567 25.9719 18.0802C25.9467 17.8071 25.9024 17.5377 25.8727 17.478C25.841 17.4138 25.809 17.2018 25.7942 16.956C25.7781 16.6887 25.7458 16.4846 25.7032 16.38C25.6611 16.2767 25.6287 16.0746 25.6137 15.822C25.5986 15.5659 25.5676 15.3744 25.5262 15.2799C25.4848 15.1859 25.4524 14.9871 25.4353 14.7219C25.4206 14.4926 25.3846 14.2541 25.3543 14.184C25.3242 14.1147 25.2787 13.8393 25.253 13.572C25.2274 13.3047 25.1821 13.0374 25.1524 12.978C25.12 12.9132 25.0885 12.7044 25.0735 12.456C25.0575 12.1887 25.0262 11.9903 24.9853 11.8959C24.9449 11.8029 24.9124 11.6002 24.8958 11.3379C24.8791 11.0732 24.8468 10.8738 24.8058 10.7799C24.7648 10.6864 24.7324 10.4855 24.7153 10.2219C24.7004 9.99037 24.6648 9.75484 24.6339 9.68401C24.6037 9.61471 24.5581 9.33931 24.5327 9.07201C24.5065 8.79742 24.463 8.54137 24.4324 8.4835C24.3993 8.4205 24.3686 8.21881 24.3529 7.9615C24.3382 7.71895 24.3042 7.48882 24.2724 7.41601C24.242 7.34671 24.1975 7.07869 24.1733 6.82039C24.1486 6.55732 24.1052 6.30397 24.0746 6.24439C24.0415 6.17995 24.0098 5.97493 23.9942 5.72401C23.9705 5.34628 23.9197 5.13244 23.7977 4.89601C23.7667 4.8358 18.023 4.79314 17.9861 4.8529ZM23.7485 4.90501C23.7991 4.97296 23.934 5.60035 23.9593 5.88601C23.9717 6.02461 24.0111 6.26761 24.047 6.42601C24.0829 6.58441 24.1236 6.83551 24.1373 6.98401C24.151 7.13251 24.1921 7.39171 24.2284 7.56001C24.2649 7.72831 24.3056 7.98751 24.3188 8.13601C24.332 8.28451 24.3724 8.52751 24.4085 8.67601C24.4446 8.82451 24.4849 9.07561 24.4982 9.23401C24.5113 9.39241 24.5517 9.65161 24.588 9.81001C24.6243 9.96841 24.6643 10.2195 24.6771 10.368C24.6899 10.5165 24.7306 10.7676 24.7677 10.926C24.8048 11.0844 24.8453 11.3355 24.8577 11.484C24.8701 11.6325 24.9106 11.8836 24.9477 12.042C24.9848 12.2004 25.0263 12.4677 25.0399 12.636C25.0536 12.8043 25.087 13.0149 25.1142 13.104C25.1414 13.1931 25.1878 13.4766 25.2174 13.734C25.2469 13.9914 25.2935 14.2749 25.321 14.364C25.3483 14.4531 25.3819 14.6637 25.3956 14.832C25.4092 15.0003 25.4501 15.2595 25.4864 15.408C25.5227 15.5565 25.5633 15.8076 25.5765 15.966C25.5897 16.1244 25.6303 16.3836 25.6667 16.542C25.7032 16.7004 25.7442 16.9596 25.758 17.118C25.7717 17.2764 25.8128 17.5275 25.8493 17.676C25.8859 17.8245 25.9263 18.0756 25.9391 18.234C25.9519 18.3924 25.9922 18.6435 26.0285 18.792C26.0648 18.9405 26.1114 19.2337 26.1319 19.4436C26.1526 19.6534 26.1873 19.8721 26.2092 19.9296C26.2311 19.987 26.2728 20.2365 26.3018 20.484C26.3308 20.7315 26.3772 21.0231 26.4049 21.132C26.4326 21.2409 26.4659 21.4515 26.4789 21.6C26.4919 21.7485 26.5326 21.9996 26.5693 22.158C26.6062 22.3164 26.6468 22.5756 26.6598 22.734C26.6728 22.8924 26.7129 23.1377 26.7488 23.279C26.7847 23.4203 26.825 23.6714 26.8384 23.837C26.8519 24.0026 26.8922 24.2595 26.9282 24.408C26.9642 24.5565 27.0042 24.7995 27.0174 24.948C27.0304 25.0965 27.0706 25.3476 27.1067 25.506C27.1428 25.6644 27.1833 25.9155 27.1967 26.064C27.2101 26.2125 27.2508 26.4636 27.2871 26.622C27.3233 26.7804 27.3638 27.0396 27.3769 27.198C27.3901 27.3564 27.4324 27.612 27.4708 27.7661C27.5554 28.1046 27.5711 28.4488 27.5057 28.5277C27.4278 28.6215 23.6695 28.6124 23.619 28.518C23.5552 28.3989 23.4347 27.7458 23.3987 27.324C23.3793 27.0963 23.3324 26.7804 23.2945 26.622C23.2566 26.4636 23.2152 26.2463 23.2026 26.139C23.19 26.0317 23.1558 25.8871 23.1268 25.8175C23.0978 25.7479 23.0509 25.5804 23.0227 25.4453C22.9945 25.3102 22.9464 25.1636 22.9156 25.1198C22.8848 25.0759 22.8597 25.0055 22.8597 24.9634C22.8597 24.9212 22.8192 24.8106 22.7697 24.7174C22.7202 24.6244 22.6793 24.5288 22.6788 24.5051C22.676 24.3752 22.059 23.2783 21.8445 23.022C21.8114 22.9824 21.6843 22.8285 21.5621 22.68C21.44 22.5315 21.2648 22.3475 21.1729 22.2712C21.081 22.1949 20.9814 22.1103 20.9517 22.0832C20.7237 21.8749 20.4833 21.7136 20.1957 21.576C20.067 21.5144 19.8658 21.4177 19.7486 21.3611C19.2804 21.1348 19.1645 21.2018 19.1143 21.7277C19.0936 21.9445 19.0376 22.3974 18.9899 22.734C18.9422 23.0706 18.8883 23.4594 18.87 23.598C18.8067 24.0802 18.7151 24.6798 18.6612 24.966C18.6314 25.1244 18.5847 25.4435 18.5576 25.675C18.5303 25.9065 18.4847 26.1657 18.4563 26.251C18.4279 26.3363 18.3929 26.5032 18.3785 26.622C18.3641 26.7407 18.329 26.8829 18.3006 26.9379C18.2723 26.9928 18.2321 27.1305 18.2116 27.2439C18.1911 27.3572 18.1517 27.4849 18.1243 27.5277C18.0969 27.5703 18.0551 27.6837 18.0314 27.7797C18.0077 27.8755 17.9596 27.9912 17.9245 28.0367C17.8894 28.0822 17.8504 28.1661 17.8379 28.2232C17.8254 28.2803 17.7926 28.3457 17.7653 28.3684C17.7378 28.3911 17.6959 28.4693 17.6721 28.5419C17.6483 28.6145 17.5908 28.7241 17.5442 28.7854C17.4978 28.8467 17.4597 28.9149 17.4597 28.9372C17.4597 28.9593 17.4273 28.9949 17.3877 29.016C17.3481 29.0372 17.3157 29.07 17.3157 29.0889C17.3157 29.2092 16.6513 29.9126 16.3437 30.1177C16.2744 30.164 16.1367 30.2587 16.0377 30.3283C15.9387 30.398 15.8396 30.4552 15.8176 30.4555C15.7955 30.4557 15.7382 30.4869 15.6903 30.5245C15.6424 30.5622 15.5368 30.611 15.4557 30.6328C15.3745 30.6546 15.2895 30.695 15.2666 30.7225C15.2438 30.7499 15.165 30.7837 15.0915 30.7975C15.0179 30.8112 14.8919 30.8525 14.8114 30.8892C14.7308 30.9258 14.5769 30.9661 14.4694 30.9787C14.3618 30.9914 14.1343 31.026 13.9639 31.0557C13.4756 31.1406 12.4873 31.0512 12.0891 30.8859C11.9963 30.8475 11.8922 30.816 11.8579 30.816C11.8001 30.816 11.3913 30.6392 11.2677 30.5609C11.238 30.542 11.1622 30.5028 11.0991 30.4737C10.8877 30.3764 10.7024 30.246 10.2777 29.8958C9.96436 29.6374 9.97417 29.6474 9.62794 29.2238C9.24058 28.7498 9.17974 28.6687 9.17974 28.626C9.17974 28.606 9.14293 28.5438 9.09784 28.4878C8.98768 28.3508 8.65288 27.6613 8.6203 27.504C8.6059 27.4347 8.56387 27.3216 8.52697 27.2525C8.48998 27.1835 8.45974 27.0849 8.45974 27.0333C8.45974 26.9817 8.42356 26.8114 8.37937 26.6548C8.26948 26.2654 8.25535 24.4047 8.36002 24.102C8.39422 24.003 8.43283 23.8248 8.44579 23.706C8.45866 23.5872 8.50762 23.3973 8.55451 23.2841C8.6014 23.1709 8.64028 23.0413 8.64091 22.9961C8.64145 22.9509 8.68186 22.833 8.73055 22.734C8.77924 22.635 8.8192 22.5241 8.81938 22.4876C8.81956 22.451 8.85106 22.3772 8.88931 22.3233C8.92765 22.2696 8.97049 22.178 8.98462 22.1198C8.99866 22.0616 9.03673 21.9735 9.06913 21.924C9.10162 21.8745 9.15706 21.7773 9.19243 21.708C9.29107 21.5146 9.37738 21.3631 9.45253 21.2515C9.49015 21.1957 9.53722 21.1228 9.55729 21.0896C10.0278 20.3099 11.2933 19.0168 11.9822 18.612C12.0665 18.5625 12.1935 18.4775 12.2645 18.423C12.3355 18.3686 12.4137 18.324 12.4383 18.324C12.4628 18.324 12.5014 18.3018 12.524 18.2746C12.5465 18.2474 12.7712 18.1251 13.0234 18.0027C13.2755 17.8804 13.5384 17.7507 13.6077 17.7146C13.677 17.6785 13.7884 17.6372 13.8551 17.6227C13.922 17.6081 14.0273 17.5676 14.0891 17.5324C14.1511 17.4972 14.2746 17.4576 14.3637 17.4443C14.4528 17.4312 14.5641 17.3953 14.6109 17.3647C14.6577 17.334 14.8113 17.293 14.9522 17.2734C15.0933 17.2539 15.2655 17.214 15.3352 17.1849C15.4048 17.1557 15.567 17.1225 15.6957 17.111C15.9926 17.0845 16.0435 17.0571 16.0655 16.9119C16.0753 16.847 16.1093 16.6806 16.1409 16.542C16.1726 16.4034 16.1987 16.2248 16.1991 16.1452C16.1995 16.0655 16.2401 15.8063 16.2895 15.5692C16.3388 15.332 16.3793 15.0809 16.3795 15.0112C16.3796 14.9414 16.4201 14.6903 16.4695 14.4532C16.5188 14.216 16.5595 13.9491 16.5599 13.86C16.5603 13.7709 16.5927 13.5684 16.6318 13.41C16.671 13.2516 16.7188 12.96 16.7381 12.762C16.7574 12.564 16.7974 12.321 16.827 12.222C16.8566 12.123 16.8971 11.8719 16.9169 11.664C16.9367 11.4561 16.977 11.2068 17.0063 11.1101C17.0357 11.0133 17.0701 10.8027 17.0828 10.6421C17.0956 10.4814 17.1367 10.2165 17.1742 10.0534C17.2116 9.8902 17.2585 9.5905 17.2785 9.38737C17.2984 9.18424 17.339 8.93926 17.3687 8.84296C17.3984 8.74666 17.4324 8.53606 17.4443 8.37496C17.456 8.21386 17.4962 7.95916 17.5334 7.80895C17.5707 7.65874 17.6173 7.36714 17.637 7.16095C17.6568 6.95476 17.6979 6.70501 17.7283 6.60601C17.7587 6.50701 17.7995 6.25591 17.8189 6.04801C17.8385 5.84011 17.8773 5.58541 17.9055 5.482C17.9337 5.3785 17.9682 5.2084 17.9824 5.104C17.9964 4.99951 18.0152 4.90186 18.0239 4.88701C18.0539 4.83652 23.7107 4.85434 23.7485 4.90501ZM20.9557 8.77222C20.9535 8.79544 20.912 8.86159 20.8636 8.91919C20.7836 9.01432 20.7705 9.08092 20.7214 9.6409C20.6917 9.9802 20.651 10.2885 20.6309 10.3261C20.6108 10.3636 20.5772 10.6192 20.5562 10.8941C20.5351 11.1691 20.4939 11.4996 20.4645 11.6286C20.435 11.7578 20.3877 12.1142 20.3593 12.4206C20.3308 12.7272 20.2907 13.0266 20.2701 13.086C20.2495 13.1454 20.2092 13.4644 20.1806 13.7947C20.1521 14.1251 20.1128 14.425 20.0935 14.4612C20.0741 14.4974 20.0401 14.7535 20.018 15.0305C19.9958 15.3074 19.9536 15.6396 19.9243 15.7686C19.895 15.8978 19.8474 16.2603 19.8186 16.5744C19.7898 16.8885 19.758 17.1537 19.7479 17.1638C19.6601 17.2516 19.962 17.4592 20.1783 17.4598C20.2181 17.4599 20.3109 17.4922 20.3845 17.5316C20.458 17.5711 20.5792 17.6181 20.6539 17.6362C20.8625 17.6868 21.217 17.8349 21.7758 18.1049C22.0412 18.2331 22.0894 18.2396 22.1328 18.153C22.1736 18.0716 22.1195 17.3769 22.0484 17.0706C22.0184 16.9412 21.9774 16.6317 21.9573 16.3828C21.9371 16.1338 21.8964 15.8248 21.8667 15.6962C21.837 15.5676 21.7966 15.252 21.7771 14.9951C21.7576 14.738 21.7167 14.4221 21.6863 14.2929C21.656 14.1638 21.6155 13.8561 21.5964 13.6094C21.5773 13.3626 21.5372 13.0549 21.5072 12.9257C21.4772 12.7965 21.4376 12.4922 21.4191 12.2496C21.4006 12.007 21.3601 11.6991 21.329 11.5655C21.2981 11.4317 21.2566 11.112 21.2371 10.8551C21.2176 10.598 21.1774 10.2833 21.1477 10.1557C21.1181 10.028 21.078 9.72784 21.0585 9.4888C21.0263 9.09316 20.9654 8.66836 20.9557 8.77222ZM21.024 9.65638C21.0422 10.0463 21.0674 10.2479 21.1108 10.35C21.1536 10.4504 21.1814 10.6644 21.2027 11.0563C21.2244 11.4604 21.2497 11.651 21.2926 11.7337C21.3354 11.8166 21.3605 12.007 21.3824 12.4151C21.4038 12.8138 21.431 13.0237 21.4743 13.1238C21.5176 13.2239 21.5437 13.4258 21.5626 13.806C21.5815 14.1837 21.608 14.3893 21.6508 14.49C21.6936 14.5904 21.7214 14.8044 21.7427 15.1963C21.7644 15.6004 21.7897 15.791 21.8326 15.8737C21.8753 15.9565 21.9005 16.147 21.9224 16.5533C21.9443 16.9604 21.9712 17.1632 22.0187 17.28C22.0662 17.397 22.0847 17.537 22.0851 17.784L22.0857 18.126L21.9729 18.1211C21.9108 18.1184 21.8257 18.082 21.7839 18.0401C21.7407 17.9969 21.6617 17.964 21.6012 17.964C21.5394 17.964 21.4651 17.9324 21.4246 17.8889C21.3862 17.8477 21.2845 17.7981 21.1988 17.7789C21.113 17.7596 21.0144 17.718 20.9795 17.6866C20.9447 17.6551 20.8331 17.6162 20.7314 17.6001C20.6298 17.584 20.5157 17.5429 20.4779 17.5087C20.4382 17.4728 20.3148 17.4353 20.1864 17.4202C19.8386 17.3792 19.8246 17.3487 19.8563 16.7057C19.8748 16.3301 19.8978 16.158 19.9376 16.097C19.9775 16.0361 20.0026 15.8482 20.0265 15.431C20.0477 15.0618 20.0794 14.8058 20.1135 14.7288C20.1704 14.6001 20.2283 14.076 20.2305 13.6697C20.2313 13.503 20.251 13.3961 20.2925 13.3328C20.3388 13.262 20.3608 13.1026 20.3855 12.659C20.4087 12.2442 20.4345 12.0473 20.4758 11.9706C20.5171 11.894 20.5429 11.698 20.5656 11.2866C20.5863 10.9121 20.6168 10.6658 20.6526 10.584C20.7112 10.4497 20.7683 9.9361 20.7705 9.52399C20.7716 9.30286 20.7829 9.26236 20.8681 9.17335C20.9975 9.03835 20.9949 9.03052 21.024 9.65638ZM14.8317 21.4008C14.6634 21.489 14.469 21.5879 14.3997 21.6205C14.3304 21.6531 14.2608 21.7023 14.2449 21.7299C14.2291 21.7574 14.1967 21.78 14.1729 21.7801C14.1492 21.7801 14.073 21.8287 14.0037 21.888C13.9344 21.9473 13.868 21.9959 13.856 21.9959C13.8442 21.996 13.7864 22.0406 13.7278 22.095C13.6691 22.1495 13.5573 22.2512 13.4794 22.3212C13.3103 22.473 13.0851 22.7326 12.887 23.004C12.8075 23.1129 12.7185 23.2337 12.6891 23.2723C12.6598 23.311 12.6357 23.3614 12.6357 23.3843C12.6357 23.4072 12.5978 23.482 12.5513 23.5504C12.5049 23.6188 12.455 23.7224 12.4405 23.7804C12.4259 23.8385 12.3908 23.912 12.3621 23.9437C12.3335 23.9755 12.2869 24.1132 12.2585 24.2497C12.2301 24.3863 12.1809 24.5871 12.1492 24.696C12.07 24.9683 12.087 25.8935 12.1737 26.028C12.2055 26.0775 12.2416 26.1747 12.2537 26.244C12.2658 26.3133 12.3408 26.4591 12.4203 26.568C12.4997 26.6769 12.5926 26.8097 12.6267 26.863C12.6608 26.9164 12.7133 26.9685 12.7433 26.9788C12.7733 26.989 12.8401 27.032 12.892 27.0742C13.2311 27.3505 14.0936 27.1954 14.2055 26.838C14.2178 26.7984 14.2574 26.7336 14.2932 26.694C14.3291 26.6544 14.3704 26.5739 14.385 26.5151C14.3996 26.4562 14.4401 26.359 14.4751 26.2991C14.51 26.2391 14.5565 26.0892 14.5786 25.9661C14.6005 25.8429 14.6413 25.6875 14.6692 25.6208C14.6971 25.5542 14.7364 25.339 14.7567 25.1428C14.7768 24.9466 14.8173 24.7068 14.8465 24.6101C14.8757 24.5133 14.9101 24.3027 14.9228 24.1421C14.9356 23.9814 14.9767 23.7165 15.0142 23.5534C15.0516 23.3902 15.0985 23.0905 15.1185 22.8874C15.1385 22.6842 15.1784 22.4306 15.2074 22.3237C15.2363 22.2169 15.2783 21.9433 15.3007 21.7157C15.3557 21.1577 15.3294 21.14 14.8317 21.4008ZM15.2563 21.686C15.2446 21.9421 15.2203 22.0874 15.1741 22.176C15.1271 22.2662 15.1006 22.4301 15.0806 22.752C15.0617 23.0567 15.0329 23.2412 14.9914 23.3232C14.9504 23.4044 14.9196 23.5986 14.898 23.9111C14.8762 24.2249 14.8474 24.4056 14.81 24.4626C14.7732 24.5188 14.744 24.6956 14.7237 24.984C14.702 25.2932 14.6752 25.4477 14.6318 25.514C14.5981 25.5655 14.5572 25.726 14.5409 25.8707C14.5227 26.034 14.4847 26.1718 14.441 26.2339C14.4022 26.289 14.3601 26.3948 14.3474 26.469C14.3348 26.5433 14.3081 26.604 14.288 26.604C14.2681 26.604 14.2195 26.6769 14.18 26.766C14.1406 26.8551 14.086 26.928 14.0586 26.928C14.0314 26.928 13.9739 26.9726 13.9312 27.027C13.8561 27.1224 13.8394 27.1265 13.4649 27.1381L13.0764 27.1501L12.9074 27.0211C12.8143 26.9501 12.7233 26.892 12.7049 26.892C12.6867 26.892 12.6717 26.8713 12.6717 26.846C12.6717 26.8207 12.6231 26.7468 12.5637 26.6818C12.5043 26.6168 12.4557 26.5408 12.4557 26.513C12.4557 26.4853 12.4259 26.4465 12.3893 26.427C12.3427 26.402 12.3111 26.3201 12.2832 26.1517C12.2613 26.0197 12.2183 25.884 12.1876 25.8501C12.0992 25.7523 12.1085 24.9743 12.2006 24.7636C12.2385 24.6769 12.2809 24.4926 12.2947 24.354C12.3111 24.1901 12.3427 24.0768 12.3849 24.03C12.4206 23.9904 12.4618 23.8932 12.4763 23.814C12.4908 23.7348 12.532 23.6493 12.5678 23.624C12.6036 23.5986 12.6435 23.5212 12.6565 23.452C12.6695 23.3827 12.7106 23.3097 12.748 23.2898C12.7852 23.2698 12.8157 23.2322 12.8157 23.2061C12.8157 23.18 12.8603 23.1081 12.9147 23.0464C13.1077 22.8274 13.2117 22.6876 13.2117 22.6472C13.2117 22.6247 13.2522 22.5908 13.3017 22.572C13.3512 22.5532 13.3917 22.5127 13.3917 22.482C13.3917 22.4513 13.4322 22.4108 13.4817 22.392C13.5312 22.3732 13.5717 22.3327 13.5717 22.302C13.5717 22.2713 13.6091 22.2321 13.6546 22.2147C13.7366 22.1836 13.8362 22.108 14.0491 21.915C14.1092 21.8606 14.1798 21.816 14.2058 21.816C14.2319 21.816 14.2695 21.7855 14.2895 21.7482C14.3095 21.7109 14.3825 21.6698 14.4518 21.6568C14.521 21.6437 14.5984 21.6039 14.6237 21.5681C14.649 21.5322 14.73 21.4917 14.8037 21.4781C14.8774 21.4644 14.9588 21.423 14.9846 21.3862C15.0304 21.3207 15.1783 21.2746 15.2412 21.3061C15.2586 21.3147 15.2653 21.4856 15.2563 21.686Z" fill="#FC968E"/>
<path fill-rule="evenodd" clip-rule="evenodd" d="M23.9484 5.97601C23.9484 6.04531 23.9557 6.07366 23.9648 6.03901C23.9738 6.00436 23.9738 5.94766 23.9648 5.91301C23.9557 5.87836 23.9484 5.90671 23.9484 5.97601ZM24.1284 7.09201C24.1284 7.16131 24.1357 7.18966 24.1448 7.15501C24.1538 7.12036 24.1538 7.06366 24.1448 7.02901C24.1357 6.99436 24.1284 7.02271 24.1284 7.09201ZM24.3091 8.22601C24.3094 8.30521 24.3168 8.33338 24.3255 8.28856C24.3341 8.24383 24.3337 8.17903 24.3247 8.14456C24.3157 8.11018 24.3086 8.14681 24.3091 8.22601ZM20.8507 8.81857C20.7568 8.94565 20.7432 9.03268 20.8283 8.96203C20.8996 8.9029 20.9999 8.71201 20.9596 8.71201C20.9431 8.71201 20.8941 8.75998 20.8507 8.81857ZM24.4891 9.34201C24.4894 9.42121 24.4968 9.44938 24.5055 9.40456C24.5141 9.35983 24.5137 9.29503 24.5047 9.26056C24.4957 9.22618 24.4886 9.26281 24.4891 9.34201ZM20.7098 9.54001C20.7098 9.62911 20.7168 9.66556 20.7254 9.62101C20.734 9.57646 20.734 9.50356 20.7254 9.45901C20.7168 9.41446 20.7098 9.45091 20.7098 9.54001ZM20.6321 10.194C20.6299 10.2271 20.6186 10.2838 20.6073 10.32C20.5877 10.3826 20.5887 10.3827 20.6277 10.3218C20.6503 10.2867 20.6616 10.23 20.6526 10.1958C20.638 10.1401 20.6359 10.14 20.6321 10.194ZM24.6684 10.476C24.6684 10.5453 24.6757 10.5737 24.6848 10.539C24.6938 10.5044 24.6938 10.4477 24.6848 10.413C24.6757 10.3784 24.6684 10.4067 24.6684 10.476ZM17.0724 10.8C17.0724 10.8693 17.0797 10.8977 17.0888 10.863C17.0978 10.8284 17.0978 10.7717 17.0888 10.737C17.0797 10.7024 17.0724 10.7307 17.0724 10.8ZM20.5303 10.926C20.5305 11.025 20.5375 11.0613 20.5458 11.0066C20.5541 10.9518 20.5539 10.8708 20.5454 10.8266C20.5368 10.7823 20.53 10.827 20.5303 10.926ZM21.2484 11.052C21.2484 11.1213 21.2557 11.1497 21.2648 11.115C21.2738 11.0804 21.2738 11.0237 21.2648 10.989C21.2557 10.9544 21.2484 10.9827 21.2484 11.052ZM24.8484 11.592C24.8484 11.6613 24.8557 11.6897 24.8648 11.655C24.8738 11.6204 24.8738 11.5637 24.8648 11.529C24.8557 11.4944 24.8484 11.5227 24.8484 11.592ZM20.4345 11.6325C20.4045 11.7825 20.4336 11.8116 20.466 11.664C20.4797 11.6018 20.4834 11.5433 20.4742 11.5342C20.465 11.5251 20.4472 11.5692 20.4345 11.6325ZM20.3498 12.312C20.3498 12.4011 20.3568 12.4376 20.3654 12.393C20.374 12.3485 20.374 12.2756 20.3654 12.231C20.3568 12.1865 20.3498 12.2229 20.3498 12.312ZM21.4284 12.42C21.4284 12.4893 21.4357 12.5177 21.4448 12.483C21.4538 12.4484 21.4538 12.3917 21.4448 12.357C21.4357 12.3224 21.4284 12.3507 21.4284 12.42ZM25.0284 12.744C25.0284 12.8133 25.0357 12.8417 25.0448 12.807C25.0538 12.7724 25.0538 12.7157 25.0448 12.681C25.0357 12.6464 25.0284 12.6747 25.0284 12.744ZM20.2526 13.0166C20.2393 13.0694 20.2354 13.1195 20.2439 13.128C20.2524 13.1364 20.2702 13.1002 20.2834 13.0474C20.2967 12.9947 20.3006 12.9445 20.2921 12.9361C20.2836 12.9276 20.2658 12.9638 20.2526 13.0166ZM25.0981 13.14C25.0999 13.2335 25.1566 13.3872 25.1579 13.302C25.1584 13.2624 25.145 13.1976 25.128 13.158C25.109 13.1139 25.0975 13.1069 25.0981 13.14ZM20.1703 13.698C20.1705 13.797 20.1775 13.8333 20.1858 13.7786C20.1941 13.7238 20.1939 13.6428 20.1854 13.5986C20.1768 13.5543 20.17 13.599 20.1703 13.698ZM21.6084 13.824C21.6084 13.8933 21.6157 13.9217 21.6248 13.887C21.6338 13.8524 21.6338 13.7957 21.6248 13.761C21.6157 13.7264 21.6084 13.7547 21.6084 13.824ZM25.2084 13.86C25.2084 13.9293 25.2157 13.9577 25.2248 13.923C25.2338 13.8884 25.2338 13.8317 25.2248 13.797C25.2157 13.7624 25.2084 13.7907 25.2084 13.86ZM20.0921 14.334C20.0899 14.3671 20.0786 14.4238 20.0673 14.46C20.0477 14.5226 20.0487 14.5227 20.0877 14.4618C20.1103 14.4267 20.1216 14.37 20.1126 14.3358C20.098 14.2801 20.0959 14.28 20.0921 14.334ZM25.3891 14.958C25.3894 15.0372 25.3968 15.0654 25.4055 15.0206C25.4141 14.9758 25.4137 14.911 25.4047 14.8766C25.3957 14.8422 25.3886 14.8788 25.3891 14.958ZM19.9898 15.084C19.9898 15.1731 19.9968 15.2096 20.0054 15.165C20.014 15.1205 20.014 15.0476 20.0054 15.003C19.9968 14.9585 19.9898 14.9949 19.9898 15.084ZM21.7884 15.192C21.7884 15.2613 21.7957 15.2897 21.8048 15.255C21.8138 15.2204 21.8138 15.1637 21.8048 15.129C21.7957 15.0944 21.7884 15.1227 21.7884 15.192ZM19.8945 15.7725C19.8645 15.9225 19.8936 15.9516 19.926 15.804C19.9397 15.7418 19.9434 15.6833 19.9342 15.6742C19.925 15.6651 19.9072 15.7092 19.8945 15.7725ZM21.9324 16.056C21.9324 16.1253 21.9397 16.1537 21.9488 16.119C21.9578 16.0844 21.9578 16.0277 21.9488 15.993C21.9397 15.9584 21.9324 15.9867 21.9324 16.056ZM25.5691 16.11C25.5694 16.1892 25.5768 16.2174 25.5855 16.1726C25.5941 16.1278 25.5937 16.063 25.5847 16.0286C25.5757 15.9942 25.5686 16.0308 25.5691 16.11ZM19.8098 16.452C19.8098 16.5411 19.8168 16.5776 19.8254 16.533C19.834 16.4885 19.834 16.4156 19.8254 16.371C19.8168 16.3265 19.8098 16.3629 19.8098 16.452ZM21.9684 16.56C21.9684 16.6293 21.9757 16.6577 21.9848 16.623C21.9938 16.5884 21.9938 16.5317 21.9848 16.497C21.9757 16.4624 21.9684 16.4907 21.9684 16.56ZM19.7185 17.1326C19.7086 17.1704 19.7309 17.2473 19.768 17.3036C19.8051 17.3599 19.8351 17.3898 19.8346 17.37C19.8341 17.3502 19.8116 17.3049 19.7847 17.2693C19.7577 17.2338 19.7439 17.173 19.754 17.1343C19.7641 17.0957 19.7643 17.064 19.7544 17.064C19.7445 17.064 19.7284 17.0949 19.7185 17.1326ZM15.633 17.1249C15.6676 17.1339 15.7243 17.1339 15.759 17.1249C15.7936 17.1158 15.7653 17.1084 15.696 17.1084C15.6267 17.1084 15.5983 17.1158 15.633 17.1249ZM25.7484 17.208C25.7484 17.2773 25.7557 17.3057 25.7648 17.271C25.7738 17.2364 25.7738 17.1797 25.7648 17.145C25.7557 17.1104 25.7484 17.1387 25.7484 17.208ZM25.8181 17.64C25.8199 17.7335 25.8766 17.8872 25.8779 17.802C25.8784 17.7624 25.865 17.6976 25.848 17.658C25.829 17.6139 25.8175 17.6069 25.8181 17.64ZM21.739 18.1059C21.7858 18.1466 21.8411 18.18 21.862 18.18C21.9063 18.18 21.9041 18.1782 21.762 18.095L21.654 18.0318L21.739 18.1059ZM22.095 18.186C22.0417 18.2418 22.0405 18.252 22.0872 18.252C22.1174 18.252 22.1519 18.227 22.1636 18.1965C22.1948 18.1151 22.1668 18.1108 22.095 18.186ZM25.9284 18.324C25.9284 18.3933 25.9357 18.4217 25.9448 18.387C25.9538 18.3524 25.9538 18.2957 25.9448 18.261C25.9357 18.2264 25.9284 18.2547 25.9284 18.324ZM26.1098 19.44C26.1098 19.5291 26.1168 19.5656 26.1254 19.521C26.134 19.4765 26.134 19.4036 26.1254 19.359C26.1168 19.3145 26.1098 19.3509 26.1098 19.44ZM10.7446 19.629L10.566 19.818L10.755 19.6394C10.8589 19.5411 10.944 19.456 10.944 19.4504C10.944 19.4235 10.9106 19.4534 10.7446 19.629ZM10.1865 20.241C10.1196 20.3252 10.0933 20.3712 10.1281 20.3433C10.1937 20.2906 10.3479 20.088 10.3225 20.088C10.3145 20.088 10.2533 20.1569 10.1865 20.241ZM26.2891 20.574C26.2894 20.6532 26.2968 20.6814 26.3055 20.6366C26.3141 20.5918 26.3137 20.527 26.3047 20.4926C26.2957 20.4582 26.2886 20.4948 26.2891 20.574ZM15.255 21.2479C15.3055 21.2723 15.3379 21.3223 15.3409 21.3805L15.3458 21.474L15.3623 21.386C15.3787 21.2991 15.2967 21.201 15.2122 21.2064C15.1912 21.2078 15.2104 21.2264 15.255 21.2479ZM19.1554 21.2899C19.1326 21.3173 19.1069 21.451 19.0982 21.5869C19.0801 21.8678 19.1002 21.8292 19.1346 21.5168C19.1533 21.3477 19.1727 21.3015 19.2359 21.2761C19.2906 21.254 19.2964 21.2439 19.2554 21.2423C19.2232 21.241 19.1782 21.2624 19.1554 21.2899ZM19.71 21.348C19.7694 21.3873 19.8342 21.4196 19.854 21.4197C19.8738 21.4197 19.837 21.3874 19.7721 21.3479C19.6193 21.2547 19.5692 21.2548 19.71 21.348ZM26.4684 21.672C26.4684 21.7413 26.4757 21.7697 26.4848 21.735C26.4938 21.7004 26.4938 21.6437 26.4848 21.609C26.4757 21.5744 26.4684 21.6027 26.4684 21.672ZM19.0531 22.158C19.0534 22.2372 19.0608 22.2654 19.0695 22.2206C19.0781 22.1758 19.0777 22.111 19.0687 22.0766C19.0597 22.0422 19.0526 22.0788 19.0531 22.158ZM26.5381 22.14C26.5399 22.2335 26.5966 22.3872 26.5979 22.302C26.5984 22.2624 26.585 22.1976 26.568 22.158C26.549 22.1139 26.5375 22.1069 26.5381 22.14ZM18.9609 22.685C18.9274 22.8726 18.9013 23.0658 18.9029 23.1141C18.9045 23.1624 18.9371 23.0244 18.9753 22.8072C19.0135 22.59 19.0396 22.3969 19.0333 22.378C19.0271 22.3592 18.9945 22.4972 18.9609 22.685ZM26.6491 22.806C26.6494 22.8852 26.6568 22.9134 26.6655 22.8686C26.6741 22.8238 26.6737 22.759 26.6647 22.7246C26.6557 22.6902 26.6486 22.7268 26.6491 22.806ZM12.9239 22.905C12.8709 22.9774 12.8622 23.0026 12.901 22.971C12.9601 22.923 13.0494 22.788 13.022 22.788C13.0152 22.788 12.971 22.8407 12.9239 22.905ZM18.8731 23.49C18.8734 23.5692 18.8808 23.5974 18.8895 23.5526C18.8981 23.5078 18.8977 23.443 18.8887 23.4086C18.8797 23.3742 18.8726 23.4108 18.8731 23.49ZM18.7771 23.9821C18.7417 24.1708 18.7205 24.3559 18.7302 24.3935C18.7424 24.4417 18.7489 24.4321 18.7519 24.3615C18.7541 24.3062 18.7812 24.1389 18.8121 23.9896C18.8428 23.8404 18.8622 23.7005 18.8549 23.6787C18.8476 23.657 18.8127 23.7935 18.7771 23.9821ZM26.8291 23.922C26.8294 24.0012 26.8368 24.0294 26.8455 23.9846C26.8541 23.9398 26.8537 23.875 26.8447 23.8406C26.8357 23.8062 26.8286 23.8428 26.8291 23.922ZM8.33903 24.1636C8.32688 24.2089 8.31842 24.2784 8.32013 24.318C8.32184 24.3576 8.33804 24.3268 8.35613 24.2496C8.39123 24.1 8.37629 24.0246 8.33903 24.1636ZM14.9124 24.3C14.9124 24.3693 14.9197 24.3977 14.9288 24.363C14.9378 24.3284 14.9378 24.2717 14.9288 24.237C14.9197 24.2024 14.9124 24.2307 14.9124 24.3ZM12.1762 24.489C12.1149 24.6586 12.1234 24.7045 12.1883 24.5547C12.2178 24.4869 12.2369 24.4169 12.2311 24.3992C12.2251 24.3815 12.2004 24.4219 12.1762 24.489ZM8.28908 24.57C8.28944 24.6492 8.29682 24.6774 8.30546 24.6326C8.3141 24.5878 8.31374 24.523 8.30474 24.4886C8.29574 24.4542 8.28863 24.4908 8.28908 24.57ZM18.6924 24.696C18.6924 24.7653 18.6997 24.7937 18.7088 24.759C18.7178 24.7244 18.7178 24.6677 18.7088 24.633C18.6997 24.5984 18.6924 24.6267 18.6924 24.696ZM27.0084 25.056C27.0084 25.1253 27.0157 25.1537 27.0248 25.119C27.0338 25.0844 27.0338 25.0277 27.0248 24.993C27.0157 24.9584 27.0084 24.9867 27.0084 25.056ZM12.0728 25.326C12.0727 25.5042 12.0787 25.5816 12.0863 25.4981C12.0938 25.4146 12.0939 25.2688 12.0865 25.1741C12.0791 25.0794 12.0729 25.1478 12.0728 25.326ZM18.594 25.164C18.5803 25.2262 18.5766 25.2847 18.5858 25.2938C18.595 25.303 18.6128 25.2588 18.6255 25.1955C18.6382 25.1322 18.6418 25.0738 18.6337 25.0657C18.6255 25.0575 18.6077 25.1018 18.594 25.164ZM18.5498 25.488C18.5498 25.5771 18.5568 25.6136 18.5654 25.569C18.574 25.5245 18.574 25.4516 18.5654 25.407C18.5568 25.3625 18.5498 25.3989 18.5498 25.488ZM8.28908 26.118C8.28944 26.1972 8.29682 26.2254 8.30546 26.1806C8.3141 26.1358 8.31374 26.071 8.30474 26.0366C8.29574 26.0022 8.28863 26.0388 8.28908 26.118ZM18.4721 26.07C18.4699 26.1031 18.4586 26.1598 18.4473 26.196C18.4277 26.2586 18.4287 26.2587 18.4677 26.1978C18.4903 26.1627 18.5016 26.106 18.4926 26.0718C18.478 26.0161 18.4759 26.016 18.4721 26.07ZM27.1884 26.172C27.1884 26.2413 27.1957 26.2697 27.2048 26.235C27.2138 26.2004 27.2138 26.1437 27.2048 26.109C27.1957 26.0744 27.1884 26.1027 27.1884 26.172ZM12.5275 26.7663C12.6708 26.9389 12.6829 26.9501 12.6437 26.8737C12.6233 26.8338 12.5687 26.7691 12.5223 26.7298C12.441 26.6611 12.4411 26.6623 12.5275 26.7663ZM27.3691 27.306C27.3694 27.3852 27.3768 27.4134 27.3855 27.3686C27.3941 27.3238 27.3937 27.259 27.3847 27.2246C27.3757 27.1902 27.3686 27.2268 27.3691 27.306ZM23.4084 27.504C23.4084 27.5733 23.4157 27.6017 23.4248 27.567C23.4338 27.5324 23.4338 27.4757 23.4248 27.441C23.4157 27.4064 23.4084 27.4347 23.4084 27.504ZM23.4432 27.738C23.4432 27.7776 23.4562 27.8505 23.472 27.9C23.4949 27.9713 23.5008 27.975 23.5008 27.918C23.5008 27.8784 23.4878 27.8055 23.472 27.756C23.4491 27.6847 23.4432 27.681 23.4432 27.738ZM27.437 27.756C27.437 27.7857 27.451 27.8424 27.468 27.882C27.4875 27.9274 27.499 27.934 27.499 27.9C27.499 27.8703 27.485 27.8136 27.468 27.774C27.4485 27.7287 27.437 27.722 27.437 27.756ZM27.4913 28.4931C27.4721 28.5432 27.2616 28.5482 25.5463 28.5396C24.4884 28.5343 23.6304 28.5422 23.6396 28.557C23.6759 28.6158 27.4554 28.5886 27.5047 28.5291C27.5297 28.499 27.5419 28.4658 27.5315 28.4556C27.5213 28.4453 27.5032 28.4622 27.4913 28.4931ZM17.5676 28.7007C17.4623 28.8591 17.4542 28.8884 17.5451 28.782C17.6253 28.6881 17.6613 28.62 17.6306 28.62C17.6255 28.62 17.5972 28.6564 17.5676 28.7007ZM9.68399 29.304C9.76688 29.403 9.84275 29.484 9.85265 29.484C9.86255 29.484 9.80288 29.403 9.71999 29.304C9.6371 29.205 9.56123 29.124 9.55133 29.124C9.54143 29.124 9.6011 29.205 9.68399 29.304ZM16.4482 29.9982C16.3966 30.0421 16.3237 30.0985 16.2862 30.1236C16.2462 30.1502 16.2626 30.148 16.3261 30.1182C16.3855 30.0903 16.465 30.0333 16.5027 29.9917C16.591 29.8941 16.5671 29.8968 16.4482 29.9982ZM14.337 30.9849C14.3716 30.9939 14.4283 30.9939 14.463 30.9849C14.4976 30.9758 14.4693 30.9684 14.4 30.9684C14.3307 30.9684 14.3023 30.9758 14.337 30.9849ZM13.0032 31.0734C13.1087 31.1032 13.7361 31.1028 13.8762 31.0728C13.9346 31.0603 13.7434 31.05 13.4514 31.05C13.1593 31.05 12.9577 31.0605 13.0032 31.0734Z" fill="#5600D6"/>
</svg>
