<svg width="36" height="36" viewBox="0 0 36 36" fill="none" xmlns="http://www.w3.org/2000/svg">
<path d="M35.6178 18.405C35.6178 17.22 35.5128 16.095 35.3328 15H18.3828V21.765H28.0878C27.6528 23.985 26.3778 25.86 24.4878 27.135V31.635H30.2778C33.6678 28.5 35.6178 23.88 35.6178 18.405Z" fill="#5600D6"/>
<path d="M18.3834 36C23.2434 36 27.3084 34.38 30.2784 31.635L24.4884 27.135C22.8684 28.215 20.8134 28.875 18.3834 28.875C13.6884 28.875 9.71336 25.71 8.28836 21.435H2.31836V26.07C5.27336 31.95 11.3484 36 18.3834 36Z" fill="#5600D6"/>
<path d="M8.28781 21.435C7.91281 20.355 7.71781 19.2 7.71781 18C7.71781 16.8 7.92781 15.645 8.28781 14.565V9.93H2.31781C1.08781 12.36 0.382812 15.09 0.382812 18C0.382812 20.91 1.08781 23.64 2.31781 26.07L8.28781 21.435Z" fill="#5600D6"/>
<path d="M18.3834 7.125C21.0384 7.125 23.4084 8.04 25.2834 9.825L30.4134 4.695C27.3084 1.785 23.2434 0 18.3834 0C11.3484 0 5.27336 4.05 2.31836 9.93L8.28836 14.565C9.71336 10.29 13.6884 7.125 18.3834 7.125Z" fill="#5600D6"/>
</svg>
