<svg width="36" height="36" viewBox="0 0 36 36" fill="none" xmlns="http://www.w3.org/2000/svg">
<path d="M11.849 22.6755L13.4732 22.3002C13.5074 22.2923 13.5638 22.2794 13.6328 22.2571C14.0809 22.1365 14.465 21.8467 14.704 21.4485C14.9431 21.0504 15.0185 20.575 14.9144 20.1227C14.9121 20.1128 14.9099 20.1034 14.9076 20.0934C14.8543 19.8766 14.7608 19.6717 14.6321 19.4894C14.45 19.2584 14.2248 19.0653 13.9689 18.9206C13.6677 18.7488 13.3524 18.6027 13.0265 18.4842L11.2456 17.8341C10.2462 17.4626 9.24683 17.1003 8.23806 16.747C7.58389 16.5142 7.02963 16.3099 6.54802 16.161C6.4571 16.133 6.35683 16.105 6.27528 16.0768C5.69306 15.8983 5.28397 15.8244 4.93776 15.8219C4.70653 15.8134 4.47619 15.8554 4.26275 15.945C4.04034 16.041 3.84058 16.1827 3.67654 16.3611C3.59495 16.4539 3.51823 16.5509 3.44671 16.6515C3.3796 16.7542 3.31805 16.8603 3.26233 16.9696C3.20097 17.0869 3.14824 17.2083 3.10457 17.3331C2.77403 18.3102 2.60939 19.3357 2.61747 20.367C2.62343 21.2994 2.64847 22.496 3.16094 23.3072C3.28443 23.5154 3.45014 23.6954 3.64741 23.8355C4.0125 24.0875 4.38142 24.1208 4.76525 24.1485C5.33883 24.1896 5.89451 24.0486 6.44848 23.9206L11.8445 22.6739L11.849 22.6755Z" fill="#5600D6"/>
<path d="M29.9687 14.0521C29.5252 13.1214 28.929 12.2717 28.2049 11.5384C28.1113 11.4453 28.011 11.3591 27.9047 11.2806C27.8066 11.207 27.7047 11.1386 27.5994 11.0757C27.4913 11.0164 27.3799 10.9629 27.266 10.9154C27.0407 10.827 26.7993 10.7871 26.5577 10.7984C26.3265 10.8116 26.1009 10.8749 25.8966 10.984C25.5868 11.138 25.2516 11.3855 24.8058 11.8C24.7442 11.8611 24.6668 11.9302 24.5974 11.9952C24.2295 12.341 23.8204 12.7674 23.3335 13.2638C22.5814 14.0239 21.8406 14.7882 21.1044 15.5608L19.7873 16.9267C19.5462 17.1763 19.3265 17.4459 19.1308 17.7326C18.9641 17.9749 18.846 18.2474 18.7834 18.5349C18.7473 18.7552 18.7526 18.9805 18.7991 19.1989C18.8014 19.2088 18.8036 19.2182 18.8058 19.2282C18.91 19.6806 19.1854 20.0749 19.5743 20.3278C19.9631 20.581 20.435 20.6731 20.8906 20.5848C20.9628 20.5744 21.0188 20.5619 21.0529 20.5536L28.0756 18.931C28.629 18.803 29.1906 18.6859 29.6879 18.3973C30.0214 18.2038 30.3386 18.0122 30.5562 17.6254C30.6724 17.413 30.7428 17.1784 30.7628 16.9371C30.8705 15.98 30.3708 14.893 29.9687 14.0521Z" fill="#5600D6"/>
<path d="M17.3996 17.0053C17.9086 16.3659 17.9073 15.4131 17.9528 14.634C18.106 12.0311 18.2673 9.42783 18.3951 6.82347C18.4439 5.83703 18.5502 4.86394 18.4914 3.86999C18.4431 3.05002 18.4372 2.10858 17.9195 1.43567C17.0056 0.249041 15.057 0.346567 13.7274 0.530634C13.3201 0.587169 12.9121 0.66318 12.5074 0.76034C12.1027 0.857502 11.7021 0.963617 11.3102 1.08913C10.0344 1.50703 8.24083 2.27413 7.93712 3.74416C7.7659 4.57522 8.17161 5.42533 8.48637 6.18375C8.86787 7.10311 9.38897 7.93125 9.86392 8.79667C11.1196 11.0814 12.3985 13.3519 13.6739 15.6247C14.0547 16.3032 14.4698 17.1626 15.2067 17.5141C15.2554 17.5354 15.3051 17.5542 15.3557 17.5704C15.6862 17.6955 16.0463 17.7197 16.3906 17.6397C16.4114 17.6349 16.4317 17.6302 16.452 17.6254C16.7699 17.539 17.0577 17.3662 17.2835 17.1261C17.3243 17.0878 17.3631 17.0475 17.3996 17.0053Z" fill="#5600D6"/>
<path d="M16.7918 23.9738C16.5932 23.6944 16.3113 23.485 15.9864 23.3755C15.6616 23.2661 15.3104 23.2621 14.9831 23.3645C14.9062 23.3899 14.8313 23.4211 14.7589 23.4574C14.647 23.5144 14.5402 23.581 14.4397 23.6565C14.147 23.8733 13.9006 24.155 13.6762 24.4376C13.6192 24.5096 13.5673 24.6056 13.4996 24.6672L12.37 26.2211C11.7297 27.0915 11.0983 27.9642 10.4722 28.8507C10.0636 29.423 9.71026 29.9064 9.43113 30.3341C9.37823 30.4146 9.3233 30.5045 9.27305 30.5762C8.9385 31.0938 8.74903 31.4715 8.65178 31.808C8.57874 32.0317 8.55562 32.2685 8.58407 32.5019C8.61516 32.7451 8.69703 32.9789 8.82436 33.1883C8.89205 33.2933 8.96501 33.3949 9.04297 33.4925C9.12397 33.5866 9.21001 33.676 9.30068 33.7606C9.39753 33.853 9.50109 33.9381 9.61055 34.0152C10.3902 34.5576 11.2438 34.9474 12.1416 35.2485C12.8887 35.4965 13.6653 35.645 14.4513 35.6899C14.585 35.6968 14.7191 35.6938 14.8524 35.6813C14.9759 35.6706 15.0988 35.6533 15.2206 35.6296C15.3423 35.6013 15.4623 35.5662 15.5803 35.5251C15.8098 35.4392 16.0189 35.3062 16.1938 35.1346C16.3595 34.9686 16.4869 34.7686 16.5674 34.5483C16.6979 34.2229 16.7838 33.8096 16.8403 33.1962C16.8452 33.109 16.8577 33.0043 16.8664 32.9083C16.9109 32.3994 16.9313 31.8014 16.9641 31.0984C17.0193 30.0171 17.0626 28.9406 17.0969 27.8611C17.0969 27.8611 17.1697 25.9427 17.1694 25.9416C17.1861 25.4995 17.1725 25.0096 17.0498 24.5694C16.996 24.3584 16.9089 24.1574 16.7918 23.9738Z" fill="#5600D6"/>
<path d="M29.5417 26.9776C29.3058 26.719 28.9718 26.4613 28.4449 26.1426C28.3689 26.1002 28.2797 26.0435 28.1975 25.9943C27.7588 25.7304 27.2303 25.4528 26.613 25.1176C25.6647 24.597 24.7158 24.0895 23.7578 23.5861L22.0654 22.6885C21.9777 22.6627 21.8886 22.5994 21.8058 22.5595C21.4807 22.404 21.1359 22.2589 20.7782 22.1923C20.6548 22.1687 20.5297 22.1557 20.4042 22.1535C20.3231 22.1525 20.2423 22.1575 20.162 22.1682C19.8236 22.2207 19.5103 22.3786 19.2668 22.6197C19.0233 22.8607 18.862 23.1723 18.8058 23.5104C18.7801 23.7255 18.7879 23.9431 18.8292 24.1557C18.9119 24.6061 19.113 25.0515 19.321 25.4418L20.2249 27.1357C20.7278 28.0911 21.2367 29.041 21.7586 29.9878C22.0951 30.6054 22.3753 31.1341 22.6377 31.5722C22.6874 31.6546 22.7438 31.7432 22.7863 31.8195C23.1057 32.3462 23.3623 32.6778 23.6225 32.9155C23.791 33.0782 23.993 33.2021 24.2143 33.2786C24.447 33.3557 24.6934 33.383 24.9372 33.3589C25.0614 33.3442 25.1846 33.3229 25.3063 33.2949C25.4263 33.2627 25.5446 33.2243 25.6604 33.1797C25.7857 33.1326 25.9073 33.0765 26.0242 33.0117C26.7114 32.6264 27.3447 32.1522 27.9081 31.6013C28.5836 30.9365 29.1807 30.2117 29.6452 29.3818C29.7098 29.2643 29.7657 29.1424 29.8126 29.017C29.8564 28.9008 29.8943 28.7826 29.9261 28.6626C29.9535 28.5406 29.9746 28.4173 29.9892 28.2933C30.0124 28.0494 29.9841 27.8037 29.9061 27.5715C29.8295 27.3493 29.705 27.1464 29.5417 26.9776Z" fill="#5600D6"/>
<path d="M32.2632 32.4253H32.4449C32.5345 32.4253 32.6064 32.4023 32.6603 32.3563C32.7152 32.3091 32.7427 32.2498 32.7427 32.1779C32.7427 32.0938 32.7185 32.0338 32.6704 31.9979C32.622 31.961 32.5459 31.9424 32.4416 31.9424H32.2632V32.4253ZM32.9934 32.1712C32.9934 32.261 32.9692 32.3407 32.9211 32.4101C32.8739 32.4786 32.8072 32.5296 32.7208 32.5634L33.1212 33.228H32.8387L32.4904 32.6323H32.2632V33.228H32.014V31.7287H32.4532C32.6395 31.7287 32.7758 31.7651 32.8622 31.8381C32.9497 31.9111 32.9934 32.0221 32.9934 32.1712ZM31.2148 32.4775C31.2148 32.2531 31.2708 32.0427 31.383 31.8464C31.4953 31.6501 31.6496 31.4954 31.8459 31.3821C32.0422 31.2688 32.2536 31.2122 32.4801 31.2122C32.7046 31.2122 32.9148 31.2682 33.1112 31.3803C33.3075 31.4925 33.4624 31.6467 33.5756 31.8431C33.6889 32.0394 33.7456 32.2509 33.7456 32.4775C33.7456 32.6984 33.6912 32.9059 33.5824 33.1C33.4736 33.2941 33.3209 33.4495 33.1246 33.5663C32.9283 33.6829 32.7136 33.7411 32.4801 33.7411C32.248 33.7411 32.0337 33.6834 31.8374 33.5679C31.6411 33.4512 31.488 33.2959 31.378 33.1018C31.2692 32.9077 31.2148 32.6995 31.2148 32.4775ZM31.3915 32.4775C31.3915 32.6715 31.4403 32.8533 31.5379 33.0227C31.6355 33.1909 31.7684 33.3239 31.9366 33.4215C32.106 33.5179 32.2872 33.5663 32.4801 33.5663C32.6753 33.5663 32.8566 33.5175 33.0236 33.4199C33.1908 33.3223 33.3232 33.1904 33.4208 33.0243C33.5195 32.8571 33.5689 32.6749 33.5689 32.4775C33.5689 32.2823 33.5201 32.1011 33.4225 31.9339C33.3249 31.7669 33.1926 31.6344 33.0254 31.5368C32.8593 31.4381 32.6776 31.3888 32.4801 31.3888C32.2849 31.3888 32.1038 31.4376 31.9366 31.5352C31.7696 31.6328 31.6366 31.7651 31.5379 31.9323C31.4403 32.0983 31.3915 32.28 31.3915 32.4775Z" fill="black"/>
</svg>
