<svg width="32" height="36" viewBox="0 0 32 36" fill="none" xmlns="http://www.w3.org/2000/svg">
<path d="M9.84852 22.6755L11.4728 22.3002C11.5069 22.2923 11.5634 22.2794 11.6323 22.2571C12.0804 22.1365 12.4645 21.8467 12.7035 21.4485C12.9426 21.0504 13.018 20.575 12.9139 20.1227C12.9116 20.1128 12.9094 20.1034 12.9071 20.0934C12.8538 19.8766 12.7603 19.6717 12.6316 19.4894C12.4496 19.2584 12.2243 19.0653 11.9684 18.9206C11.6672 18.7488 11.3519 18.6027 11.026 18.4842L9.24513 17.8341C8.2457 17.4626 7.24634 17.1003 6.23758 16.747C5.5834 16.5142 5.02914 16.3099 4.54753 16.161C4.45662 16.133 4.35634 16.105 4.27479 16.0768C3.69257 15.8984 3.28348 15.8244 2.93727 15.8219C2.70604 15.8134 2.4757 15.8555 2.26226 15.945C2.03985 16.041 1.84009 16.1827 1.67605 16.3611C1.59446 16.4539 1.51775 16.5509 1.44622 16.6515C1.37911 16.7542 1.31756 16.8603 1.26184 16.9696C1.20048 17.0869 1.14776 17.2083 1.10408 17.3331C0.773546 18.3102 0.608901 19.3357 0.616983 20.367C0.622941 21.2994 0.647983 22.496 1.16045 23.3072C1.28394 23.5154 1.44966 23.6954 1.64692 23.8355C2.01201 24.0875 2.38094 24.1208 2.76476 24.1485C3.33834 24.1896 3.89402 24.0486 4.44799 23.9206L9.84399 22.6739L9.84852 22.6755Z" fill="#FF1A1A"/>
<path d="M27.9697 14.0522C27.5262 13.1214 26.93 12.2718 26.2059 11.5384C26.1123 11.4453 26.0119 11.3591 25.9057 11.2806C25.8076 11.2071 25.7057 11.1387 25.6004 11.0757C25.4923 11.0164 25.3809 10.9629 25.267 10.9154C25.0417 10.827 24.8003 10.7872 24.5587 10.7984C24.3275 10.8116 24.1019 10.8749 23.8975 10.9841C23.5878 11.138 23.2526 11.3855 22.8068 11.8C22.7452 11.8611 22.6678 11.9302 22.5983 11.9953C22.2305 12.3411 21.8214 12.7674 21.3345 13.2638C20.5823 14.0239 19.8415 14.7882 19.1054 15.5608L17.7883 16.9267C17.5471 17.1763 17.3275 17.4459 17.1318 17.7327C16.9651 17.9749 16.847 18.2474 16.7844 18.5349C16.7483 18.7552 16.7535 18.9805 16.8001 19.1989C16.8023 19.2088 16.8046 19.2183 16.8068 19.2282C16.911 19.6807 17.1863 20.0749 17.5753 20.3279C17.9641 20.581 18.4359 20.6731 18.8916 20.5848C18.9638 20.5744 19.0198 20.5619 19.0539 20.5536L26.0766 18.9311C26.63 18.8031 27.1916 18.6859 27.6889 18.3973C28.0223 18.2039 28.3396 18.0122 28.5572 17.6254C28.6734 17.413 28.7438 17.1784 28.7638 16.9371C28.8715 15.98 28.3718 14.893 27.9697 14.0522Z" fill="#FF1A1A"/>
<path d="M15.4004 17.0053C15.9093 16.3659 15.908 15.4131 15.9535 14.634C16.1067 12.0311 16.268 9.42783 16.3958 6.82348C16.4446 5.83703 16.5509 4.86395 16.4922 3.86999C16.4438 3.05003 16.4379 2.10859 15.9202 1.43567C15.0064 0.249049 13.0577 0.346575 11.7281 0.530642C11.3209 0.587177 10.9128 0.663188 10.5081 0.760348C10.1034 0.857509 9.70284 0.963625 9.31092 1.08914C8.03513 1.50704 6.24156 2.27414 5.93785 3.74417C5.76663 4.57523 6.17235 5.42534 6.4871 6.18375C6.8686 7.10311 7.38971 7.93126 7.86465 8.79668C9.1203 11.0814 10.3992 13.3519 11.6746 15.6247C12.0554 16.3032 12.4706 17.1626 13.2074 17.5141C13.2561 17.5354 13.3059 17.5543 13.3565 17.5704C13.6869 17.6955 14.0471 17.7197 14.3913 17.6397C14.4121 17.6349 14.4324 17.6302 14.4527 17.6254C14.7706 17.539 15.0584 17.3662 15.2842 17.1261C15.325 17.0879 15.3638 17.0475 15.4004 17.0053Z" fill="#FF1A1A"/>
<path d="M14.7908 23.9738C14.5922 23.6944 14.3103 23.485 13.9855 23.3755C13.6606 23.2661 13.3094 23.2621 12.9821 23.3645C12.9053 23.3899 12.8303 23.4211 12.7579 23.4574C12.646 23.5144 12.5392 23.581 12.4387 23.6565C12.1461 23.8733 11.8996 24.155 11.6752 24.4376C11.6183 24.5096 11.5663 24.6056 11.4986 24.6672L10.369 26.2211C9.72874 27.0915 9.09732 27.9642 8.47119 28.8507C8.06266 29.423 7.70929 29.9064 7.43015 30.3341C7.37725 30.4146 7.32233 30.5045 7.27207 30.5762C6.93753 31.0938 6.74805 31.4715 6.65081 31.808C6.57777 32.0317 6.55465 32.2685 6.58309 32.5019C6.61418 32.7451 6.69605 32.9789 6.82338 33.1883C6.89108 33.2933 6.96404 33.3949 7.04199 33.4925C7.123 33.5866 7.20903 33.676 7.2997 33.7606C7.39655 33.853 7.50012 33.9381 7.60957 34.0152C8.38925 34.5576 9.24279 34.9474 10.1406 35.2485C10.8877 35.4965 11.6643 35.645 12.4503 35.6899C12.5841 35.6968 12.7181 35.6938 12.8514 35.6813C12.9749 35.6706 13.0979 35.6533 13.2196 35.6296C13.3413 35.6013 13.4614 35.5662 13.5793 35.5251C13.8089 35.4392 14.0179 35.3062 14.1929 35.1346C14.3585 34.9686 14.486 34.7686 14.5664 34.5483C14.697 34.2229 14.7828 33.8096 14.8393 33.1962C14.8443 33.109 14.8567 33.0043 14.8654 32.9083C14.9099 32.3994 14.9304 31.8014 14.9631 31.0984C15.0183 30.0171 15.0617 28.9406 15.0959 27.8611C15.0959 27.8611 15.1687 25.9427 15.1685 25.9416C15.1851 25.4995 15.1715 25.0096 15.0488 24.5694C14.995 24.3584 14.9079 24.1574 14.7908 23.9738Z" fill="#FF1A1A"/>
<path d="M27.5417 26.9776C27.3058 26.719 26.9718 26.4613 26.4449 26.1426C26.3689 26.1002 26.2797 26.0435 26.1975 25.9942C25.7588 25.7304 25.2303 25.4528 24.613 25.1176C23.6647 24.597 22.7158 24.0894 21.7578 23.5861L20.0654 22.6885C19.9777 22.6627 19.8886 22.5994 19.8058 22.5595C19.4807 22.404 19.1359 22.2589 18.7782 22.1923C18.6548 22.1686 18.5297 22.1557 18.4042 22.1534C18.3231 22.1525 18.2423 22.1574 18.162 22.1682C17.8236 22.2206 17.5103 22.3786 17.2668 22.6197C17.0233 22.8606 16.862 23.1723 16.8058 23.5104C16.7801 23.7254 16.7879 23.943 16.8292 24.1557C16.9119 24.6061 17.113 25.0515 17.321 25.4418L18.2249 27.1357C18.7278 28.091 19.2367 29.041 19.7586 29.9878C20.0951 30.6054 20.3753 31.1341 20.6377 31.5722C20.6874 31.6546 20.7438 31.7432 20.7863 31.8195C21.1057 32.3462 21.3623 32.6778 21.6225 32.9155C21.791 33.0782 21.993 33.2021 22.2143 33.2786C22.447 33.3557 22.6934 33.383 22.9372 33.3589C23.0614 33.3442 23.1846 33.3229 23.3063 33.2949C23.4263 33.2627 23.5446 33.2243 23.6604 33.1797C23.7857 33.1326 23.9073 33.0765 24.0242 33.0117C24.7114 32.6264 25.3447 32.1522 25.9081 31.6013C26.5836 30.9365 27.1807 30.2117 27.6452 29.3818C27.7098 29.2643 27.7657 29.1424 27.8126 29.017C27.8564 28.9008 27.8943 28.7826 27.9261 28.6626C27.9535 28.5406 27.9746 28.4173 27.9892 28.2933C28.0124 28.0494 27.9841 27.8037 27.9061 27.5715C27.8295 27.3493 27.705 27.1464 27.5417 26.9776Z" fill="#FF1A1A"/>
<path d="M30.2629 32.4253H30.4447C30.5343 32.4253 30.6061 32.4022 30.66 32.3563C30.7149 32.3091 30.7424 32.2498 30.7424 32.1779C30.7424 32.0938 30.7183 32.0338 30.6701 31.9979C30.6218 31.961 30.5456 31.9424 30.4413 31.9424H30.2629V32.4253ZM30.9932 32.1712C30.9932 32.261 30.969 32.3406 30.9208 32.4101C30.8736 32.4786 30.8069 32.5296 30.7205 32.5634L31.121 33.228H30.8384L30.4901 32.6323H30.2629V33.228H30.0138V31.7286H30.453C30.6392 31.7286 30.7756 31.7651 30.862 31.8381C30.9495 31.911 30.9932 32.0221 30.9932 32.1712ZM29.2146 32.4774C29.2146 32.2531 29.2706 32.0427 29.3828 31.8464C29.4951 31.6501 29.6493 31.4954 29.8456 31.3821C30.042 31.2688 30.2533 31.2122 30.4799 31.2122C30.7044 31.2122 30.9146 31.2682 31.1109 31.3803C31.3072 31.4925 31.4621 31.6467 31.5754 31.843C31.6887 32.0394 31.7453 32.2509 31.7453 32.4774C31.7453 32.6984 31.6909 32.9059 31.5821 33.1C31.4733 33.2941 31.3207 33.4494 31.1244 33.5662C30.928 33.6829 30.7133 33.7411 30.4799 33.7411C30.2477 33.7411 30.0335 33.6834 29.8372 33.5678C29.6408 33.4512 29.4877 33.2958 29.3778 33.1018C29.269 32.9077 29.2146 32.6995 29.2146 32.4774ZM29.3912 32.4774C29.3912 32.6715 29.44 32.8533 29.5376 33.0227C29.6352 33.1909 29.7682 33.3238 29.9364 33.4214C30.1058 33.5179 30.2869 33.5662 30.4799 33.5662C30.6751 33.5662 30.8564 33.5174 31.0234 33.4198C31.1906 33.3222 31.3229 33.1904 31.4205 33.0243C31.5192 32.8571 31.5687 32.6749 31.5687 32.4774C31.5687 32.2822 31.5199 32.1011 31.4223 31.9339C31.3247 31.7669 31.1924 31.6344 31.0252 31.5368C30.8591 31.4381 30.6773 31.3888 30.4799 31.3888C30.2847 31.3888 30.1036 31.4376 29.9364 31.5352C29.7693 31.6328 29.6364 31.7651 29.5376 31.9323C29.44 32.0982 29.3912 32.28 29.3912 32.4774Z" fill="black"/>
</svg>
