<svg width="77" height="32" viewBox="0 0 77 32" fill="none" xmlns="http://www.w3.org/2000/svg">
<g clip-path="url(#clip0_8_14)">
<path fill-rule="evenodd" clip-rule="evenodd" d="M47.3814 0.0721587C47.3754 0.113385 47.3323 0.163126 47.2811 0.187707C47.2316 0.211514 47.1779 0.265707 47.1619 0.308094C47.1458 0.350481 47.0836 0.405836 47.0235 0.430997C46.9525 0.460997 46.903 0.510352 46.8813 0.572868C46.8595 0.635772 46.8187 0.676223 46.7625 0.690352C46.7051 0.704868 46.6616 0.749191 46.63 0.824868C46.6042 0.886998 46.5488 0.950869 46.5065 0.967127C46.4643 0.983191 46.4106 1.03603 46.3871 1.08461C46.3636 1.13319 46.3039 1.19571 46.2545 1.22358C46.2052 1.25145 46.1471 1.31048 46.1253 1.3548C46.1036 1.39913 46.0458 1.45487 45.9967 1.47848C45.9478 1.50209 45.8945 1.55609 45.8785 1.59848C45.8625 1.64087 45.7988 1.6968 45.737 1.72274C45.6627 1.7539 45.6177 1.79842 45.6038 1.85377C45.5902 1.90835 45.5451 1.95364 45.4754 1.98287C45.4057 2.01209 45.3607 2.05738 45.3472 2.11197C45.3338 2.16558 45.2887 2.21145 45.2221 2.23951C45.154 2.26816 45.1058 2.31809 45.0831 2.38371C45.0631 2.44138 45.0144 2.49713 44.969 2.51455C44.9255 2.53119 44.8704 2.58538 44.8467 2.63493C44.823 2.68467 44.7634 2.74467 44.7141 2.76848C44.6648 2.79229 44.6113 2.84629 44.5951 2.88867C44.5791 2.93126 44.517 2.98642 44.4569 3.01177C44.3859 3.04158 44.3362 3.09093 44.3147 3.15345C44.2927 3.21655 44.2519 3.2568 44.1959 3.27093C44.1395 3.28526 44.095 3.32938 44.0656 3.40061C44.0363 3.47068 43.9913 3.51597 43.9372 3.52951C43.8819 3.54345 43.8378 3.58893 43.8068 3.66364C43.7809 3.72577 43.7254 3.78964 43.6831 3.80571C43.6409 3.82197 43.5872 3.87577 43.5635 3.92532C43.5398 3.97487 43.4802 4.03487 43.4307 4.05868C43.3814 4.08248 43.3279 4.13667 43.3119 4.17906C43.2958 4.22164 43.2322 4.27738 43.1704 4.30332C43.0961 4.33448 43.0511 4.379 43.0372 4.43455C43.0236 4.48893 42.9785 4.53422 42.9088 4.56345C42.8391 4.59287 42.7941 4.63816 42.7804 4.69255C42.7671 4.74635 42.7221 4.79222 42.6553 4.82029C42.5872 4.84893 42.5392 4.89868 42.5163 4.96448C42.4959 5.02351 42.4476 5.07771 42.3991 5.09629C42.3538 5.11371 42.303 5.16403 42.2865 5.20816C42.2691 5.25384 42.2077 5.3088 42.1438 5.33571C42.0695 5.36687 42.0243 5.41119 42.0104 5.46674C41.9971 5.52055 41.9521 5.56642 41.8853 5.59448C41.8189 5.62235 41.769 5.67306 41.7479 5.73422C41.7261 5.79713 41.6853 5.83758 41.6291 5.85171C41.5729 5.86584 41.5284 5.91016 41.4988 5.98119C41.4697 6.05126 41.4247 6.09655 41.3706 6.11029C41.3163 6.12384 41.2712 6.16913 41.2422 6.23919C41.2131 6.30926 41.168 6.35455 41.1138 6.36829C41.0597 6.38203 41.0146 6.42732 40.9856 6.49738C40.9563 6.56745 40.9113 6.61274 40.8572 6.62629C40.8031 6.64003 40.758 6.68532 40.7288 6.75538C40.6997 6.82545 40.6547 6.87074 40.6006 6.88448C40.5463 6.89803 40.5012 6.94332 40.4722 7.01338C40.4431 7.08345 40.398 7.12874 40.3438 7.14248C40.2897 7.15622 40.2446 7.20151 40.2156 7.27158C40.1863 7.34164 40.1413 7.38693 40.0872 7.40048C40.0331 7.41422 39.988 7.45951 39.9588 7.52958C39.9297 7.59964 39.8847 7.64493 39.8306 7.65868C39.7753 7.67261 39.731 7.7179 39.7 7.79261C39.6735 7.85687 39.6188 7.91861 39.5734 7.93603C39.5293 7.95287 39.4798 8.00261 39.4631 8.04693C39.4458 8.09261 39.3843 8.14758 39.3204 8.17429C39.2461 8.20545 39.2011 8.24997 39.1872 8.30551C39.1736 8.3599 39.1285 8.40519 39.0588 8.43442C38.9891 8.46384 38.9441 8.50913 38.9304 8.56351C38.917 8.6179 38.8719 8.66319 38.8022 8.69261C38.7325 8.72184 38.6875 8.76713 38.6738 8.82151C38.6602 8.87609 38.6151 8.92138 38.5454 8.95061C38.4757 8.97984 38.4307 9.02513 38.4172 9.07971C38.4036 9.13409 38.3585 9.17938 38.2888 9.20861C38.2191 9.23803 38.1741 9.28332 38.1604 9.33771C38.147 9.39209 38.1019 9.43738 38.0322 9.4668C37.9625 9.49603 37.9175 9.54132 37.9038 9.59571C37.8902 9.65029 37.8451 9.69558 37.7754 9.7248C37.7057 9.75403 37.6607 9.79932 37.6472 9.8539C37.6336 9.90829 37.5885 9.95358 37.5188 9.9828C37.4491 10.0122 37.4041 10.0575 37.3904 10.1119C37.377 10.1663 37.3319 10.2116 37.2622 10.241C37.1925 10.2702 37.1475 10.3155 37.1338 10.3699C37.1202 10.4245 37.0751 10.4698 37.0054 10.499C36.9357 10.5282 36.8907 10.5735 36.8772 10.6281C36.8636 10.6825 36.8185 10.7278 36.7488 10.757C36.6791 10.7864 36.6341 10.8317 36.6204 10.8861C36.607 10.9405 36.5619 10.9858 36.4922 11.0152C36.4225 11.0444 36.3775 11.0897 36.3638 11.1441C36.3502 11.1987 36.3051 11.244 36.2354 11.2732C36.1657 11.3024 36.1207 11.3477 36.1072 11.4023C36.0936 11.4567 36.0485 11.502 35.9788 11.5312C35.9091 11.5606 35.8641 11.6059 35.8504 11.6603C35.837 11.7147 35.7919 11.76 35.7222 11.7894C35.6525 11.8186 35.6075 11.8639 35.5938 11.9183C35.5804 11.9721 35.5355 12.018 35.4687 12.046C35.4006 12.0747 35.3524 12.1246 35.3297 12.19C35.3074 12.2547 35.2733 12.2903 35.2342 12.2903C35.1613 12.2903 35.0671 12.3871 35.0671 12.4618C35.0671 12.4924 35.0194 12.5353 34.9559 12.5618C34.8827 12.5926 34.8377 12.6373 34.8238 12.6925C34.8102 12.7471 34.7651 12.7924 34.6954 12.8216C34.6257 12.8508 34.5807 12.8961 34.5672 12.9507C34.5538 13.0043 34.5087 13.0502 34.4421 13.0782C34.374 13.1069 34.3258 13.1568 34.3031 13.2222C34.2806 13.2869 34.2467 13.3225 34.2074 13.3225C34.1358 13.3225 34.0519 13.4088 34.0353 13.4996C34.029 13.5348 33.9949 13.5691 33.9599 13.5754C33.8706 13.5919 33.7837 13.6763 33.7837 13.7465C33.7837 13.7833 33.742 13.823 33.6727 13.8522C33.5993 13.883 33.5543 13.9275 33.5404 13.9829C33.5271 14.0367 33.4821 14.0825 33.4153 14.1106C33.3474 14.1391 33.2992 14.189 33.2765 14.2546C33.2523 14.3241 33.2209 14.3549 33.1737 14.3549C33.1364 14.3549 33.0794 14.369 33.0469 14.3864C33.0032 14.41 32.9833 14.4058 32.9699 14.3704C32.9598 14.344 32.9319 14.3225 32.9081 14.3225C32.8578 14.3225 32.7439 14.2037 32.7148 14.1209C32.7038 14.0899 32.6753 14.0645 32.6515 14.0645C32.601 14.0645 32.4871 13.9455 32.458 13.8629C32.4472 13.8319 32.4187 13.8064 32.3947 13.8064C32.3444 13.8064 32.2305 13.6875 32.2014 13.6049C32.1904 13.5737 32.1619 13.5484 32.1381 13.5484C32.0878 13.5484 31.9739 13.4295 31.9448 13.3467C31.9338 13.3157 31.9053 13.2904 31.8815 13.2904C31.831 13.2904 31.7171 13.1713 31.688 13.0887C31.6772 13.0577 31.6487 13.0322 31.6247 13.0322C31.5744 13.0322 31.4605 12.9133 31.4314 12.8307C31.4204 12.7995 31.3919 12.7742 31.3681 12.7742C31.3178 12.7742 31.2039 12.6553 31.1748 12.5725C31.1638 12.5415 31.1353 12.5162 31.1115 12.5162C31.061 12.5162 30.9471 12.3971 30.918 12.3145C30.9072 12.2835 30.8787 12.258 30.8547 12.258C30.8044 12.258 30.6905 12.1391 30.6614 12.0565C30.6504 12.0253 30.6219 12 30.5981 12C30.5478 12 30.4339 11.8811 30.4048 11.7983C30.3938 11.7673 30.3653 11.742 30.3415 11.742C30.291 11.742 30.1771 11.6229 30.148 11.5403C30.1372 11.5093 30.1087 11.4838 30.0847 11.4838C30.0344 11.4838 29.9205 11.3649 29.8914 11.2823C29.8804 11.2511 29.8519 11.2258 29.8281 11.2258C29.7778 11.2258 29.6639 11.1069 29.6348 11.0241C29.6238 10.9931 29.5953 10.9678 29.5715 10.9678C29.521 10.9678 29.4071 10.8487 29.378 10.7661C29.3672 10.7351 29.3387 10.7096 29.3147 10.7096C29.2644 10.7096 29.1505 10.5907 29.1214 10.5081C29.1104 10.4769 29.0819 10.4516 29.0581 10.4516C29.0078 10.4516 28.8939 10.3327 28.8648 10.2499C28.8538 10.2189 28.8253 10.1936 28.8015 10.1936C28.751 10.1936 28.6371 10.0745 28.608 9.9919C28.5972 9.96093 28.5687 9.93539 28.5447 9.93539C28.4944 9.93539 28.3805 9.81655 28.3514 9.7339C28.3404 9.70274 28.3119 9.67739 28.2881 9.67739C28.2378 9.67739 28.1239 9.55855 28.0948 9.47571C28.0838 9.44474 28.0553 9.41939 28.0315 9.41939C27.981 9.41939 27.8671 9.30035 27.838 9.21771C27.8272 9.18674 27.7987 9.16119 27.7747 9.16119C27.7244 9.16119 27.6105 9.04235 27.5814 8.95971C27.5704 8.92855 27.5419 8.90319 27.5181 8.90319C27.4678 8.90319 27.3539 8.78435 27.3248 8.70151C27.3138 8.67055 27.2853 8.64519 27.2615 8.64519C27.211 8.64519 27.0971 8.52616 27.068 8.44351C27.0572 8.41255 27.0287 8.387 27.0047 8.387C26.9544 8.387 26.8405 8.26816 26.8114 8.18551C26.8004 8.15435 26.7719 8.129 26.7481 8.129C26.6978 8.129 26.5839 8.01016 26.5548 7.92732C26.5438 7.89635 26.5153 7.871 26.4915 7.871C26.441 7.871 26.3271 7.75197 26.298 7.66932C26.2872 7.63835 26.2587 7.6128 26.2347 7.6128C26.1844 7.6128 26.0705 7.49397 26.0414 7.41132C26.0304 7.38016 26.0019 7.3548 25.9781 7.3548C25.9278 7.3548 25.8139 7.23597 25.7848 7.15313C25.7738 7.12216 25.7453 7.0968 25.7215 7.0968C25.671 7.0968 25.5571 6.97777 25.528 6.89513C25.5172 6.86416 25.4887 6.83861 25.4647 6.83861C25.4144 6.83861 25.3005 6.71977 25.2714 6.63713C25.2416 6.55197 24.5518 6.55197 24.522 6.63713C24.4929 6.71977 24.379 6.83861 24.3285 6.83861C24.3047 6.83861 24.2762 6.86416 24.2652 6.89513C24.2361 6.97777 24.1222 7.0968 24.0719 7.0968C24.0481 7.0968 24.0196 7.12216 24.0086 7.15313C23.9795 7.23597 23.8656 7.3548 23.8153 7.3548C23.7913 7.3548 23.7628 7.38016 23.752 7.41132C23.7229 7.49397 23.609 7.6128 23.5585 7.6128C23.5347 7.6128 23.5062 7.63835 23.4952 7.66932C23.4661 7.75197 23.3522 7.871 23.3019 7.871C23.2781 7.871 23.2494 7.89635 23.2384 7.92732C23.2084 8.01268 23.1244 8.10093 23.0438 8.1319C23.0041 8.14719 22.9716 8.18029 22.9716 8.20545C22.9716 8.2308 22.9187 8.29816 22.854 8.35526C22.6784 8.51009 22.6784 8.78009 22.854 8.93513C22.9187 8.99222 22.9716 9.05958 22.9716 9.08493C22.9716 9.11029 22.997 9.1399 23.0278 9.15093C23.11 9.18016 23.2284 9.29474 23.2284 9.34526C23.2284 9.36945 23.2536 9.39809 23.2844 9.40893C23.3668 9.43816 23.485 9.55274 23.485 9.60345C23.485 9.62745 23.5102 9.65609 23.5412 9.66713C23.6234 9.69635 23.7416 9.81093 23.7416 9.86145C23.7416 9.88545 23.767 9.91409 23.7978 9.92513C23.88 9.95435 23.9984 10.0689 23.9984 10.1194C23.9984 10.1436 24.0236 10.1723 24.0544 10.1831C24.1368 10.2124 24.255 10.3269 24.255 10.3776C24.255 10.4016 24.2802 10.4303 24.3112 10.4413C24.3934 10.4705 24.5116 10.5851 24.5116 10.6356C24.5116 10.6596 24.537 10.6883 24.5678 10.6993C24.65 10.7285 24.7684 10.8431 24.7684 10.8936C24.7684 10.9178 24.7936 10.9465 24.8244 10.9573C24.9068 10.9865 25.025 11.1011 25.025 11.1518C25.025 11.1758 25.0502 11.2045 25.0812 11.2155C25.1634 11.2447 25.2816 11.3593 25.2816 11.4098C25.2816 11.4338 25.307 11.4625 25.3378 11.4735C25.42 11.5027 25.5384 11.6173 25.5384 11.6678C25.5384 11.692 25.5636 11.7207 25.5944 11.7315C25.6768 11.7607 25.795 11.8753 25.795 11.926C25.795 11.95 25.8202 11.9787 25.8512 11.9897C25.9334 12.0189 26.0516 12.1335 26.0516 12.184C26.0516 12.208 26.077 12.2367 26.1078 12.2477C26.19 12.2769 26.3084 12.3915 26.3084 12.442C26.3084 12.4662 26.3336 12.4949 26.3644 12.5057C26.4468 12.5349 26.565 12.6495 26.565 12.7002C26.565 12.7242 26.5902 12.7529 26.6212 12.7639C26.7034 12.7931 26.8216 12.9077 26.8216 12.9582C26.8216 12.9822 26.847 13.0109 26.8778 13.0219C26.96 13.0511 27.0784 13.1657 27.0784 13.2162C27.0784 13.2404 27.1036 13.2691 27.1344 13.2799C27.2168 13.3091 27.335 13.4237 27.335 13.4744C27.335 13.4984 27.3602 13.5271 27.3912 13.5381C27.4734 13.5673 27.5916 13.6819 27.5916 13.7324C27.5916 13.7564 27.617 13.7851 27.6478 13.7961C27.73 13.8253 27.8484 13.9399 27.8484 13.9904C27.8484 14.0146 27.8736 14.0433 27.9044 14.0541C27.9868 14.0833 28.105 14.1979 28.105 14.2486C28.105 14.2726 28.1302 14.3013 28.1612 14.3123C28.2434 14.3415 28.3616 14.4561 28.3616 14.5066C28.3616 14.5306 28.387 14.5593 28.4178 14.5703C28.5 14.5995 28.6184 14.7141 28.6184 14.7646C28.6184 14.7888 28.6436 14.8174 28.6744 14.8283C28.7568 14.8575 28.875 14.9721 28.875 15.0228C28.875 15.0468 28.9002 15.0754 28.9312 15.0865C29.0134 15.1157 29.1316 15.2303 29.1316 15.2808C29.1316 15.3048 29.157 15.3334 29.1878 15.3445C29.27 15.3737 29.3884 15.4883 29.3884 15.5388C29.3884 15.563 29.4136 15.5916 29.4444 15.6025C29.5268 15.6317 29.645 15.7463 29.645 15.797C29.645 15.821 29.6702 15.8496 29.7012 15.8607C29.7834 15.8899 29.9016 16.0045 29.9016 16.055C29.9016 16.079 29.927 16.1076 29.9578 16.1187C30.04 16.1479 30.1584 16.2625 30.1584 16.313C30.1584 16.3372 30.1836 16.3658 30.2144 16.3767C30.2968 16.4059 30.415 16.5205 30.415 16.5712C30.415 16.5952 30.4402 16.6238 30.4712 16.6349C30.5534 16.6641 30.6716 16.7787 30.6716 16.8292C30.6716 16.8532 30.697 16.8818 30.7278 16.8929C30.81 16.9221 30.9284 17.0367 30.9284 17.0872C30.9284 17.1114 30.9536 17.14 30.9844 17.1509C31.0668 17.1801 31.185 17.2947 31.185 17.3454C31.185 17.3694 31.2102 17.398 31.2412 17.4091C31.3234 17.4383 31.4416 17.5529 31.4416 17.6034C31.4416 17.6274 31.467 17.656 31.4978 17.6671C31.58 17.6963 31.6984 17.8109 31.6984 17.8614C31.6984 17.8856 31.7236 17.9142 31.7544 17.9251C31.8368 17.9543 31.955 18.0689 31.955 18.1196C31.955 18.1436 31.9802 18.1722 32.0112 18.1833C32.0934 18.2125 32.2116 18.3271 32.2116 18.3776C32.2116 18.4016 32.237 18.4302 32.2678 18.4413C32.35 18.4705 32.4684 18.5851 32.4684 18.6356C32.4684 18.6598 32.4936 18.6884 32.5244 18.6993C32.6035 18.7273 32.725 18.8425 32.725 18.8893C32.725 18.9499 32.8049 18.9677 33.0725 18.9673C33.4109 18.9667 33.4573 18.9501 33.4811 18.822C33.4979 18.7325 33.5183 18.7124 33.6092 18.6954C33.7006 18.678 33.7202 18.6582 33.7374 18.5663C33.7545 18.4744 33.7743 18.4544 33.8658 18.4372C33.9572 18.42 33.9768 18.4002 33.9942 18.3083C34.0113 18.2164 34.0309 18.1964 34.1224 18.1792C34.2138 18.162 34.2336 18.142 34.2508 18.0501C34.2679 17.9582 34.2877 17.9384 34.3792 17.9212C34.4706 17.9038 34.4902 17.884 34.5074 17.7921C34.5245 17.7002 34.5443 17.6802 34.6358 17.663C34.7272 17.6458 34.7468 17.626 34.7642 17.5341C34.7813 17.4422 34.8009 17.4222 34.8924 17.405C34.9838 17.3878 35.0036 17.3678 35.0208 17.2759C35.0379 17.184 35.0577 17.1642 35.1492 17.147C35.2406 17.1296 35.2602 17.1098 35.2774 17.0179C35.2945 16.926 35.3143 16.906 35.4058 16.8888C35.4972 16.8716 35.5168 16.8518 35.5342 16.7599C35.5513 16.668 35.5709 16.648 35.6624 16.6308C35.7538 16.6136 35.7736 16.5936 35.7908 16.5017C35.8079 16.4098 35.8277 16.39 35.9192 16.3728C36.0106 16.3554 36.0302 16.3356 36.0474 16.2437C36.0645 16.1518 36.0843 16.1318 36.1758 16.1146C36.268 16.0972 36.2868 16.0778 36.3047 15.9826C36.3213 15.8934 36.3403 15.8709 36.3998 15.8709C36.4963 15.8709 36.575 15.7902 36.575 15.6911C36.575 15.6298 36.5917 15.6129 36.653 15.6129C36.7513 15.6129 36.8316 15.5338 36.8316 15.4368C36.8316 15.377 36.8539 15.3578 36.9427 15.341C37.0374 15.3232 37.0568 15.304 37.0742 15.2115C37.0913 15.1196 37.1109 15.0996 37.2024 15.0824C37.2946 15.065 37.3136 15.0456 37.3313 14.9504C37.3479 14.8612 37.3671 14.8387 37.4264 14.8387C37.5229 14.8387 37.6016 14.7578 37.6016 14.6589C37.6016 14.5976 37.6185 14.5805 37.6796 14.5805C37.7793 14.5805 37.8584 14.5012 37.8584 14.4009C37.8584 14.3394 37.8751 14.3225 37.9362 14.3225C38.0347 14.3225 38.115 14.2434 38.115 14.1464C38.115 14.0866 38.1373 14.0674 38.2261 14.0508C38.3216 14.0328 38.34 14.014 38.3579 13.918C38.3747 13.8288 38.3937 13.8064 38.4532 13.8064C38.5497 13.8064 38.6284 13.7256 38.6284 13.6267C38.6284 13.5652 38.6451 13.5484 38.7062 13.5484C38.8059 13.5484 38.885 13.4688 38.885 13.3685C38.885 13.3072 38.9017 13.2904 38.963 13.2904C39.0627 13.2904 39.1416 13.2108 39.1416 13.1105C39.1416 13.0492 39.1585 13.0322 39.2196 13.0322C39.3193 13.0322 39.3984 12.9528 39.3984 12.8525C39.3984 12.791 39.4151 12.7742 39.4762 12.7742C39.5759 12.7742 39.655 12.6946 39.655 12.5944C39.655 12.533 39.6717 12.5162 39.733 12.5162C39.8327 12.5162 39.9116 12.4366 39.9116 12.3364C39.9116 12.275 39.9285 12.258 39.9896 12.258C40.0893 12.258 40.1684 12.1786 40.1684 12.0784C40.1684 12.0168 40.1851 12 40.2462 12C40.3459 12 40.425 11.9204 40.425 11.8202C40.425 11.7588 40.4417 11.742 40.503 11.742C40.6027 11.742 40.6816 11.6624 40.6816 11.5622C40.6816 11.5008 40.6985 11.4838 40.7596 11.4838C40.8593 11.4838 40.9384 11.4044 40.9384 11.3042C40.9384 11.2426 40.9551 11.2258 41.0162 11.2258C41.1159 11.2258 41.195 11.1462 41.195 11.046C41.195 10.9846 41.2117 10.9678 41.273 10.9678C41.3727 10.9678 41.4516 10.8882 41.4516 10.788C41.4516 10.7266 41.4685 10.7096 41.5296 10.7096C41.6293 10.7096 41.7084 10.6302 41.7084 10.53C41.7084 10.4684 41.7251 10.4516 41.7862 10.4516C41.8859 10.4516 41.965 10.372 41.965 10.2718C41.965 10.2104 41.9817 10.1936 42.043 10.1936C42.1427 10.1936 42.2216 10.114 42.2216 10.0138C42.2216 9.95242 42.2385 9.93539 42.2996 9.93539C42.3993 9.93539 42.4784 9.85603 42.4784 9.75577C42.4784 9.69422 42.4951 9.67739 42.5562 9.67739C42.6559 9.67739 42.735 9.59784 42.735 9.49758C42.735 9.43622 42.7517 9.41939 42.813 9.41939C42.9127 9.41939 42.9916 9.33984 42.9916 9.23958C42.9916 9.17822 43.0085 9.16119 43.0696 9.16119C43.1693 9.16119 43.2484 9.08184 43.2484 8.98158C43.2484 8.92003 43.2651 8.90319 43.3262 8.90319C43.4259 8.90319 43.505 8.82364 43.505 8.72338C43.505 8.66203 43.5217 8.64519 43.583 8.64519C43.6827 8.64519 43.7616 8.56564 43.7616 8.46538C43.7616 8.40403 43.7785 8.387 43.8396 8.387C43.9393 8.387 44.0184 8.30764 44.0184 8.20738C44.0184 8.14584 44.0351 8.129 44.0962 8.129C44.1959 8.129 44.275 8.04945 44.275 7.94919C44.275 7.88784 44.2917 7.871 44.353 7.871C44.4527 7.871 44.5316 7.79145 44.5316 7.69119C44.5316 7.62984 44.5485 7.6128 44.6096 7.6128C44.7093 7.6128 44.7884 7.53345 44.7884 7.43319C44.7884 7.37164 44.8051 7.3548 44.8662 7.3548C44.9659 7.3548 45.045 7.27526 45.045 7.175C45.045 7.11364 45.0617 7.0968 45.123 7.0968C45.2227 7.0968 45.3016 7.01726 45.3016 6.917C45.3016 6.85564 45.3185 6.83861 45.3796 6.83861C45.4793 6.83861 45.5584 6.75926 45.5584 6.659C45.5584 6.59745 45.5751 6.58061 45.6362 6.58061C45.7359 6.58061 45.815 6.50106 45.815 6.4008C45.815 6.33945 45.8317 6.32261 45.893 6.32261C45.9927 6.32261 46.0716 6.24306 46.0716 6.1428C46.0716 6.08145 46.0885 6.06442 46.1496 6.06442C46.2493 6.06442 46.3284 5.98506 46.3284 5.8848C46.3284 5.82326 46.3451 5.80642 46.4062 5.80642C46.5059 5.80642 46.585 5.72687 46.585 5.62661C46.585 5.56526 46.6017 5.54842 46.663 5.54842C46.7627 5.54842 46.8416 5.46887 46.8416 5.36861C46.8416 5.30726 46.8585 5.29022 46.9196 5.29022C47.0193 5.29022 47.0984 5.21087 47.0984 5.11061C47.0984 5.04906 47.1151 5.03222 47.1762 5.03222C47.2759 5.03222 47.355 4.95268 47.355 4.85242C47.355 4.79106 47.3717 4.77422 47.433 4.77422C47.5327 4.77422 47.6116 4.69468 47.6116 4.59442C47.6116 4.53306 47.6285 4.51603 47.6896 4.51603C47.7893 4.51603 47.8684 4.43668 47.8684 4.33642C47.8684 4.27487 47.8851 4.25803 47.9462 4.25803C48.0459 4.25803 48.125 4.17848 48.125 4.07822C48.125 4.01687 48.1417 4.00003 48.203 4.00003C48.3027 4.00003 48.3816 3.92048 48.3816 3.82022C48.3816 3.75887 48.3985 3.74184 48.4596 3.74184C48.5593 3.74184 48.6384 3.66248 48.6384 3.56222C48.6384 3.50068 48.6551 3.48384 48.7162 3.48384C48.8159 3.48384 48.895 3.40429 48.895 3.30403C48.895 3.24267 48.9117 3.22584 48.973 3.22584C49.0727 3.22584 49.1516 3.14629 49.1516 3.04603C49.1516 2.98467 49.1685 2.96764 49.2296 2.96764C49.3293 2.96764 49.4084 2.88829 49.4084 2.78803C49.4084 2.72648 49.4251 2.70964 49.4862 2.70964C49.5859 2.70964 49.665 2.63009 49.665 2.52984C49.665 2.46848 49.6817 2.45164 49.743 2.45164C49.8417 2.45164 49.9216 2.37229 49.9216 2.27435C49.9216 2.21609 49.9443 2.19364 50.0198 2.177C50.142 2.1499 50.1784 2.06203 50.1778 1.79629C50.1772 1.5048 50.1576 1.45661 50.0304 1.43261C49.9387 1.41538 49.9216 1.39855 49.9216 1.32538C49.9216 1.21429 49.8679 1.16126 49.7549 1.16126C49.6779 1.16126 49.665 1.14829 49.665 1.07087C49.665 0.956288 49.6123 0.903256 49.4981 0.903256C49.4211 0.903256 49.4084 0.890288 49.4084 0.812868C49.4084 0.698288 49.3555 0.645062 49.2415 0.645062C49.1645 0.645062 49.1516 0.632288 49.1516 0.554868C49.1516 0.440094 49.0989 0.387062 48.9849 0.387062C48.9112 0.387062 48.895 0.372933 48.895 0.308675C48.895 0.208417 48.8159 0.129062 48.7162 0.129062C48.6598 0.129062 48.6384 0.111256 48.6384 0.0644168C48.6384 -0.0430026 47.3966 -0.0354542 47.3814 0.0721587ZM4.43135 14.3549C4.31643 14.3822 4.2683 14.4319 4.26753 14.5242C4.26715 14.5726 4.23442 14.5805 4.03441 14.5807C3.70736 14.5811 3.5624 14.627 3.51832 14.7445C3.48791 14.8254 3.46615 14.8387 3.36297 14.8387C3.26615 14.8387 3.21667 14.8643 3.10541 14.9717C3.02976 15.0449 2.92099 15.1182 2.86401 15.1345C2.78509 15.1569 2.7541 15.1883 2.73408 15.2659C2.71406 15.3435 2.68383 15.3739 2.60645 15.394C2.51116 15.4188 2.43936 15.5481 2.43859 15.696C2.4382 15.7401 2.30114 15.8709 2.25514 15.8709C2.21048 15.8709 2.1816 15.9484 2.1816 16.068C2.1816 16.1392 2.16197 16.1704 2.10229 16.1932C1.98852 16.2367 1.925 16.4167 1.925 16.6956C1.925 16.9217 1.92115 16.9337 1.83683 16.9744C1.68822 17.0456 1.67379 17.1807 1.6709 18.5241L1.6684 19.7419H0.834103H0V21.0323V22.3225H0.834103H1.6684V27.1612V31.9999H3.08H4.4916V27.1616V22.3233L5.89531 22.3147L7.29902 22.3064V21.0898C7.29902 19.9651 7.29459 19.8689 7.24166 19.8156C7.18891 19.7624 7.07976 19.7572 5.83756 19.7481L4.49064 19.738L4.49911 18.8289L4.50777 17.9198L4.60364 17.9032C4.70855 17.885 4.73723 17.8149 4.74455 17.56C4.7482 17.4342 4.75475 17.4253 4.85947 17.4056C4.95476 17.3876 4.97343 17.3688 4.99133 17.273C5.00904 17.178 5.02521 17.1613 5.09952 17.1613C5.16266 17.1613 5.21521 17.1257 5.2899 17.0322L5.39308 16.9031H6.02121H6.64953L6.77388 17.0162C6.97293 17.1969 7.16812 17.1822 7.3895 16.9697L7.55562 16.8104V15.7796C7.55562 14.6659 7.54735 14.6129 7.37506 14.6129C7.34291 14.6129 7.27053 14.5622 7.21451 14.5C7.1583 14.4381 7.06051 14.3729 6.99718 14.3551C6.86031 14.3169 4.59228 14.3167 4.43135 14.3549ZM21.8068 14.6032C21.775 14.6115 21.7352 14.6543 21.7186 14.6984C21.6849 14.7871 21.6755 31.6759 21.709 31.8789L21.7288 31.9999H23.1202H24.5116V23.3289C24.5116 16.6279 24.5029 14.6493 24.4731 14.6193C24.4352 14.5811 21.949 14.5662 21.8068 14.6032ZM65.7387 19.5056C65.6947 19.5143 65.608 19.5696 65.5462 19.6289L65.434 19.7363L65.0255 19.7471L64.6171 19.758L64.5179 19.8789C64.4299 19.9862 64.402 19.9999 64.2742 19.9999C64.1468 19.9999 64.1165 20.0148 64.0166 20.1267C63.9325 20.2209 63.8694 20.2591 63.7704 20.2755C63.608 20.3024 63.5571 20.3405 63.5571 20.4352C63.5571 20.4948 63.5344 20.5114 63.4311 20.5281C63.3494 20.5413 63.3 20.5682 63.2905 20.6047C63.2825 20.6359 63.2734 20.5233 63.2705 20.3549C63.2599 19.7388 63.2534 19.7359 61.8887 19.7487C60.8056 19.7589 60.7902 19.7618 60.7353 19.96C60.6989 20.092 60.6856 31.7177 60.7218 31.8993L60.7418 31.9999H62.1334H63.525V28.3064C63.525 24.7378 63.5269 24.6129 63.5843 24.6129C63.7111 24.6129 63.7585 24.5022 63.7745 24.167C63.7895 23.855 63.7912 23.8492 63.8794 23.8157C63.9758 23.7791 64.0378 23.6276 64.0382 23.4274C64.0384 23.3396 64.0503 23.3225 64.1121 23.3225C64.2061 23.3225 64.2629 23.2654 64.2629 23.1714C64.2629 23.1178 64.2933 23.0849 64.3741 23.051C64.4469 23.0204 64.4923 22.9755 64.506 22.9211C64.5198 22.866 64.5551 22.8319 64.6113 22.8195C64.762 22.7866 64.7714 22.7793 64.782 22.6873C64.7915 22.6045 64.8063 22.595 64.9539 22.577C65.2082 22.5456 65.2581 22.5211 65.2791 22.416L65.2979 22.3209L65.8308 22.3298L66.3638 22.3387L66.3804 22.4351C66.3986 22.541 66.4683 22.5696 66.7253 22.5768C66.8524 22.5803 66.8616 22.5869 66.8616 22.6709C66.8616 22.7856 66.9145 22.8387 67.0285 22.8387C67.102 22.8387 67.1184 22.8528 67.1184 22.9167C67.1184 23.0241 67.1498 23.0967 67.1964 23.0967C67.293 23.0967 67.3667 23.242 67.3846 23.4677C67.4075 23.7588 67.4277 23.8056 67.5394 23.8283L67.6316 23.8467V27.9234V31.9999H69.0232H70.4146L70.4344 31.8789C70.4454 31.8125 70.4544 30.13 70.4546 28.1404L70.455 24.5227L70.5711 24.4204C70.6841 24.3205 70.6873 24.3112 70.7033 24.0381C70.7197 23.7561 70.7826 23.6129 70.8902 23.6129C70.9386 23.6129 70.9684 23.5395 70.9684 23.4207C70.9684 23.3467 70.9853 23.3272 71.0635 23.3115C71.1368 23.2968 71.1646 23.2687 71.1853 23.1882C71.2013 23.1261 71.2477 23.064 71.3003 23.034C71.3488 23.0065 71.4063 22.9476 71.4279 22.9031C71.4506 22.8567 71.5008 22.8178 71.5467 22.8114C71.6547 22.7963 71.7062 22.7479 71.7062 22.662C71.7062 22.5973 71.7268 22.5876 71.9043 22.5691C72.1126 22.547 72.2196 22.4837 72.2196 22.3821C72.2196 22.3269 72.2539 22.3225 72.6824 22.3225H73.1454L73.2378 22.4351C73.313 22.5273 73.3591 22.5516 73.4886 22.5685C73.6453 22.5888 73.7916 22.6815 73.7916 22.7603C73.7916 22.8071 73.8638 22.8387 73.9708 22.8387C74.0378 22.8387 74.0484 22.8538 74.0484 22.9502C74.0484 23.0355 74.0775 23.0924 74.172 23.1925C74.2873 23.3144 74.2971 23.3398 74.3139 23.5635C74.3308 23.7892 74.3391 23.8101 74.4469 23.9053L74.5616 24.0067V28.0033V31.9999H75.7809H77V26.9193C77 21.8601 76.9998 21.8386 76.9359 21.8386C76.8795 21.8386 76.8716 21.8171 76.8716 21.6634C76.8716 21.4215 76.8323 21.3333 76.7132 21.3069C76.6321 21.2889 76.615 21.2694 76.615 21.1949C76.615 21.0509 76.5276 20.8786 76.431 20.8324C76.3726 20.8043 76.339 20.7604 76.3324 20.7036C76.3207 20.6026 76.2756 20.5587 76.1678 20.5434C76.1105 20.5353 76.0823 20.5043 76.0629 20.4288C76.0379 20.3313 75.9106 20.2591 75.7624 20.2583C75.7185 20.2579 75.5884 20.1201 75.5884 20.0738C75.5884 20.0287 75.5112 19.9999 75.3897 19.9999C75.3243 19.9999 75.2721 19.9736 75.2292 19.9186C75.1229 19.7827 75.0051 19.7419 74.7195 19.7419C74.4661 19.7419 74.453 19.738 74.3364 19.6322C74.1876 19.4971 73.9535 19.4692 73.1348 19.4891L72.6056 19.5019L72.4834 19.6219C72.3619 19.7411 72.3596 19.7419 72.0899 19.7421C71.7247 19.7423 71.5804 19.7849 71.5351 19.9058C71.5062 19.9825 71.4808 19.9999 71.3982 19.9999C71.2491 19.9999 71.0666 20.0874 71.0337 20.1745C71.014 20.2264 70.9663 20.2598 70.8841 20.2792C70.7859 20.3026 70.7586 20.3266 70.7376 20.4085C70.7166 20.49 70.6908 20.5128 70.6005 20.5298C70.506 20.5476 70.4866 20.567 70.4694 20.6587C70.4533 20.7447 70.4288 20.7724 70.348 20.7956C70.2671 20.8188 70.2406 20.8486 70.2173 20.9423C70.1961 21.0276 70.1666 21.0656 70.1098 21.0799C70.0575 21.0931 70.0157 21.1405 69.9834 21.2229C69.9206 21.3838 69.685 21.3605 69.685 21.1935C69.685 21.0551 69.5951 20.8716 69.5114 20.8397C69.4598 20.82 69.4267 20.772 69.407 20.6887C69.382 20.5825 69.3626 20.5627 69.259 20.5382C69.1643 20.5155 69.1396 20.4944 69.1396 20.4362C69.1396 20.3487 69.0884 20.3005 68.9795 20.2854C68.9304 20.2784 68.8832 20.2399 68.8573 20.1851C68.8097 20.0851 68.6386 19.9999 68.485 19.9999C68.4024 19.9999 68.3772 19.9825 68.3483 19.9058C68.3028 19.7849 68.1587 19.7423 67.7935 19.7421C67.5232 19.7419 67.5215 19.7413 67.3989 19.6209L67.2757 19.5L66.5473 19.4947C66.1467 19.492 65.7828 19.4969 65.7387 19.5056ZM9.72009 19.7676C9.69295 19.78 9.60633 19.8611 9.52759 19.9478L9.38437 20.1054V24.1318V28.1582L9.50469 28.282L9.625 28.4059L9.62827 29.0013C9.63193 29.7052 9.63963 29.7453 9.77842 29.7815L9.8816 29.8084V30.0292C9.8816 30.2924 9.94782 30.474 10.0591 30.5164C10.1186 30.5392 10.1384 30.5704 10.1384 30.6418C10.1384 30.7654 10.1675 30.8386 10.2169 30.8386C10.2774 30.8386 10.3729 30.9588 10.431 31.1076C10.462 31.1868 10.5201 31.2617 10.5738 31.2915C10.6237 31.3194 10.687 31.3831 10.7145 31.4332C10.745 31.4884 10.8191 31.5455 10.9028 31.5785C10.9789 31.6084 11.0897 31.6864 11.1494 31.7518C11.2441 31.8557 11.2766 31.871 11.4041 31.871C11.5286 31.871 11.55 31.8803 11.55 31.9354C11.55 31.9993 11.5714 31.9999 13.5391 31.9999C15.507 31.9999 15.5284 31.9993 15.5284 31.9354C15.5284 31.8805 15.5507 31.8704 15.6807 31.8677C15.9219 31.8627 15.9865 31.8336 16.0168 31.7167C16.0404 31.6246 16.0562 31.6128 16.1558 31.6128C16.2424 31.6128 16.2741 31.5964 16.2955 31.5402C16.3263 31.4591 16.4139 31.3749 16.4988 31.3445C16.5483 31.3269 16.555 31.3476 16.555 31.5166C16.555 31.6223 16.5725 31.7742 16.5937 31.8544L16.6324 31.9999H17.8775H19.1226L19.1141 25.9366C19.106 20.1656 19.1029 19.8704 19.0483 19.8156C18.9682 19.7349 16.632 19.7266 16.4772 19.8064C16.2976 19.8991 16.3034 19.7686 16.3007 23.8444L16.2984 27.6081L16.1839 27.7029C16.0753 27.7931 16.0686 27.8104 16.0508 28.0442C16.0356 28.247 16.0227 28.2904 15.9779 28.2904C15.9011 28.2904 15.8283 28.3834 15.8012 28.516C15.7767 28.6354 15.672 28.7742 15.6064 28.7742C15.5598 28.7742 15.5284 28.8468 15.5284 28.9542C15.5284 29.0152 15.5115 29.0322 15.4508 29.0322C15.3438 29.0322 15.2716 29.0638 15.2716 29.1106C15.2716 29.1894 15.1253 29.2821 14.9686 29.3024C14.8391 29.3193 14.793 29.3436 14.7178 29.4358L14.6254 29.5484H14.1166H13.608L13.5156 29.4358C13.4402 29.3436 13.3941 29.3193 13.2646 29.3024C13.1046 29.2817 12.9616 29.1892 12.9616 29.1064C12.9616 29.0825 12.9287 29.0502 12.8881 29.0347C12.7778 28.9925 12.7244 28.9113 12.689 28.7309C12.6605 28.5863 12.6457 28.5652 12.5568 28.5424L12.4569 28.5164L12.4407 28.0082C12.423 27.4558 12.3955 27.3375 12.273 27.2907L12.1928 27.2601L12.1841 23.5509C12.1774 20.5614 12.1675 19.8338 12.134 19.8C12.0882 19.7539 9.81596 19.7233 9.72009 19.7676ZM41.3819 19.7642C41.2 19.7934 41.2117 19.3896 41.2027 25.9405L41.1942 31.9999H42.5858H43.9776L43.998 31.8503C44.0092 31.768 44.0184 30.1432 44.0184 28.2398V24.7788L44.1335 24.6834C44.2415 24.5938 44.2502 24.5727 44.27 24.3507C44.2906 24.1186 44.2931 24.113 44.3866 24.0967C44.4725 24.0818 44.4856 24.0634 44.515 23.9138C44.5483 23.7439 44.6352 23.6129 44.7141 23.6129C44.7383 23.6129 44.7672 23.5875 44.778 23.5564C44.8065 23.4754 44.9206 23.3549 44.969 23.3549C44.9917 23.3549 45.0681 23.2993 45.1389 23.2318C45.2098 23.164 45.3218 23.0951 45.3878 23.0785C45.4854 23.0541 45.5137 23.0285 45.5378 22.9436C45.5674 22.8393 45.5688 22.8387 45.773 22.8387C45.9975 22.8387 46.1267 22.7887 46.2241 22.6643C46.2841 22.5874 46.2993 22.5849 46.7858 22.5749C47.0607 22.5693 47.2976 22.5524 47.3123 22.5377C47.3689 22.4808 47.3623 19.8507 47.3055 19.7936C47.2616 19.7493 47.1588 19.7423 46.5908 19.7444C45.8464 19.7471 45.6949 19.7736 45.6289 19.9122C45.5892 19.9954 45.5751 19.9999 45.3617 19.9999C45.1397 19.9999 45.1349 20.0016 45.0213 20.129C44.9201 20.2424 44.8891 20.2581 44.7647 20.2581C44.6408 20.2581 44.6092 20.2736 44.51 20.3849C44.4286 20.4758 44.3616 20.5174 44.2711 20.5329C44.1306 20.5567 44.0503 20.6204 44.0503 20.7083C44.0503 20.7499 44.0174 20.7731 43.9364 20.7884C43.8602 20.8029 43.8138 20.8335 43.7963 20.8807C43.7795 20.9256 43.7653 20.7919 43.757 20.5161L43.7441 20.0806L43.5845 19.9194L43.4247 19.758L42.4462 19.7541C41.908 19.752 41.4291 19.7564 41.3819 19.7642ZM49.3876 19.764C49.1476 19.7969 49.1678 19.3602 49.1678 24.5502V29.1904L49.2881 29.3142C49.4074 29.4371 49.4084 29.4402 49.4084 29.7046C49.4084 29.9944 49.4486 30.1122 49.5841 30.2195C49.6469 30.2692 49.665 30.3129 49.665 30.4145C49.665 30.5224 49.6867 30.5686 49.7874 30.6751C49.8548 30.7463 49.9233 30.8589 49.9399 30.9253C49.9641 31.0235 49.9896 31.0519 50.0741 31.0761C50.158 31.1003 50.1784 31.1227 50.1784 31.1916C50.1784 31.3008 50.2323 31.3548 50.3416 31.3548C50.4148 31.3548 50.431 31.3718 50.4489 31.4676C50.4675 31.5677 50.4833 31.5824 50.5909 31.5998C50.6858 31.6149 50.7195 31.6389 50.7463 31.7104C50.783 31.8083 50.9328 31.8704 51.1328 31.8708C51.2156 31.8708 51.2371 31.8842 51.2371 31.9354C51.2371 31.9993 51.2585 31.9999 53.2422 31.9999C55.2261 31.9999 55.2475 31.9993 55.2475 31.9354C55.2475 31.883 55.2689 31.871 55.3615 31.871C55.4974 31.871 55.6367 31.8038 55.7187 31.6991C55.7515 31.6571 55.835 31.6093 55.9041 31.5929C56.0063 31.5685 56.0344 31.5449 56.0548 31.4657C56.0751 31.3873 56.1047 31.362 56.2092 31.3339L56.3384 31.2993V31.6496V31.9999H57.5848H58.8315L58.8682 31.776C58.9079 31.5348 58.9166 20.3204 58.8771 20.1584C58.8659 20.1125 58.7941 20.0038 58.7175 19.9165L58.5779 19.758H57.395C56.3024 19.758 56.2079 19.7624 56.1549 19.8156C56.1008 19.87 56.0972 20.0659 56.0889 23.4393L56.0803 27.0052L55.9857 27.0853C55.8623 27.1896 55.8254 27.3344 55.8252 27.7138L55.825 28.0242L55.7313 28.043C55.6277 28.0639 55.603 28.1144 55.5721 28.3697C55.554 28.5182 55.5445 28.5331 55.4621 28.5425C55.3703 28.5532 55.3638 28.5619 55.3295 28.7189C55.3178 28.7729 55.2793 28.8203 55.2333 28.8381C55.1909 28.8542 55.1372 28.9072 55.1137 28.956C55.0864 29.0127 55.0332 29.0545 54.9657 29.0719C54.8839 29.093 54.8561 29.1203 54.8413 29.1946C54.825 29.2771 54.808 29.2902 54.7181 29.2902C54.5628 29.2902 54.3836 29.3769 54.3489 29.4687L54.3187 29.5484H53.7716H53.2247L53.1939 29.4671C53.1602 29.3781 53.0545 29.3235 52.8576 29.2935C52.7463 29.2767 52.7273 29.2616 52.7129 29.1776C52.6998 29.1013 52.6765 29.0777 52.6016 29.0645C52.5234 29.051 52.5017 29.027 52.4786 28.9281C52.4543 28.8253 52.4347 28.8052 52.3409 28.7876L52.2316 28.7671V28.576C52.2316 28.3513 52.1754 28.1976 52.0597 28.1061L51.9762 28.0401L51.9675 23.9725L51.959 19.9051L51.8859 19.8315L51.8129 19.758L50.6508 19.7541C50.0115 19.752 49.443 19.7564 49.3876 19.764Z" fill="#09090A"/>
<path fill-rule="evenodd" clip-rule="evenodd" d="M31.6662 20.3025C31.6019 20.3263 31.5361 20.3807 31.5121 20.43C31.4726 20.5111 31.4572 20.5161 31.2458 20.5161C31.0002 20.5161 30.876 20.5628 30.7742 20.6928C30.7282 20.7517 30.6799 20.7741 30.6002 20.7741C30.5105 20.7741 30.471 20.7977 30.3892 20.9003C30.3105 20.9987 30.2583 21.0314 30.1513 21.049C29.9828 21.077 29.9337 21.1142 29.9337 21.2137C29.9337 21.277 29.9174 21.2903 29.8398 21.2903C29.7255 21.2903 29.645 21.3647 29.645 21.4701C29.645 21.5344 29.6288 21.5483 29.5551 21.5483C29.5058 21.5483 29.4481 21.5657 29.4269 21.587C29.4057 21.6083 29.3884 21.6664 29.3884 21.7161C29.3884 21.7903 29.3743 21.8065 29.3104 21.8065C29.2111 21.8065 29.1316 21.8859 29.1316 21.9852C29.1316 22.0454 29.1085 22.0688 29.0282 22.0897C28.9439 22.1116 28.9195 22.1383 28.8971 22.2333C28.8821 22.2974 28.8132 22.4096 28.7441 22.4828C28.6413 22.5914 28.6184 22.639 28.6184 22.7433C28.6184 22.8459 28.6066 22.871 28.5591 22.871C28.4463 22.871 28.3903 22.9808 28.3706 23.2405C28.3531 23.4751 28.3466 23.4917 28.2367 23.5829L28.121 23.6787V25.2904V26.9021L28.2413 27.0017C28.3499 27.0917 28.3616 27.1165 28.3616 27.2565C28.3616 27.4579 28.438 27.6391 28.5391 27.6778C28.5986 27.7005 28.6184 27.7318 28.6184 27.803C28.6184 27.9263 28.6475 28.0001 28.6964 28.0001C28.7655 28.0001 28.8692 28.1416 28.8923 28.2678C28.9177 28.4059 28.9803 28.4839 29.0658 28.4839C29.1081 28.4839 29.1289 28.5176 29.1437 28.6115C29.1618 28.7253 29.1757 28.7414 29.2733 28.7597C29.3659 28.7772 29.3853 28.7967 29.4026 28.8888C29.42 28.9816 29.4392 29.0007 29.5339 29.0185C29.624 29.0356 29.6498 29.0584 29.671 29.1399C29.692 29.2217 29.7193 29.2457 29.8175 29.2692C29.8995 29.2885 29.9474 29.322 29.9669 29.3739C29.9988 29.4581 30.1811 29.5485 30.3191 29.5485C30.3946 29.5485 30.411 29.5647 30.4283 29.6578C30.4516 29.7827 30.5018 29.8053 30.7573 29.8061C30.9161 29.8065 30.9242 29.8107 30.9448 29.9052C30.9719 30.0294 31.0587 30.0645 31.338 30.0645C31.5411 30.0645 31.5571 30.0703 31.6743 30.1854L31.7975 30.3064L32.895 30.3168C34.1834 30.3292 34.2379 30.324 34.3867 30.1746C34.49 30.0705 34.5081 30.0645 34.7189 30.0645C34.963 30.0645 35.0875 30.0176 35.1892 29.8877C35.2321 29.833 35.2843 29.8065 35.3497 29.8065C35.4749 29.8065 35.5484 29.7774 35.5484 29.7281C35.5484 29.6601 35.6932 29.5485 35.7809 29.5485C35.932 29.5485 36.0223 29.4941 36.0452 29.389C36.0618 29.3133 36.0841 29.2903 36.1419 29.2903C36.2464 29.2903 36.3184 29.2583 36.3184 29.2119C36.3184 29.165 36.4397 29.0501 36.5188 29.022C36.5498 29.011 36.575 28.9823 36.575 28.9583C36.575 28.9076 36.6932 28.793 36.7756 28.7638C36.8064 28.753 36.8316 28.7224 36.8316 28.6961C36.8316 28.6697 36.8893 28.6016 36.96 28.5445C37.0634 28.4609 37.0884 28.4199 37.0884 28.3334C37.0884 28.2416 37.0996 28.2257 37.1646 28.2257C37.263 28.2257 37.3005 28.1764 37.3277 28.0113C37.3438 27.9118 37.382 27.8483 37.4755 27.7637L37.6016 27.6499V27.3594C37.6016 27.0426 37.5677 26.9677 37.4239 26.9677C37.3641 26.9677 37.3408 26.9445 37.3202 26.8639C37.2896 26.7457 37.2255 26.7178 36.9721 26.713C36.8166 26.7099 36.8066 26.7045 36.7887 26.6148C36.7677 26.5092 36.6337 26.4521 36.4058 26.4519C36.3066 26.4517 36.2791 26.4372 36.2545 26.3719C36.2025 26.2345 36.041 26.1935 35.5509 26.1935C35.0677 26.1935 35.035 26.2053 35.035 26.3774C35.035 26.4679 35.0236 26.4838 34.9588 26.4838C34.8693 26.4838 34.8209 26.5341 34.8055 26.6427C34.7992 26.6872 34.7557 26.7428 34.7045 26.7718C34.6552 26.7997 34.5974 26.8579 34.5763 26.9013C34.5536 26.9478 34.4946 26.9911 34.4325 27.0072C34.3505 27.0285 34.3229 27.0559 34.3081 27.1303C34.2925 27.2088 34.2731 27.2259 34.1994 27.2259C34.0813 27.2259 34.0084 27.2557 34.0084 27.3043C34.0084 27.4734 33.5678 27.5327 32.6101 27.4924L32.1902 27.4746L32.1565 27.385C32.1217 27.2921 31.9702 27.2265 31.7902 27.2261C31.719 27.2259 31.702 27.2079 31.6847 27.1142C31.6668 27.019 31.648 26.9994 31.5557 26.982C31.4643 26.9648 31.4445 26.945 31.4274 26.8531C31.41 26.7604 31.3908 26.7412 31.2961 26.7234C31.2075 26.7068 31.185 26.6874 31.185 26.628C31.185 26.5239 31.153 26.4517 31.107 26.4517C31.0198 26.4517 30.9284 26.3038 30.9259 26.1592C30.9224 25.955 30.8579 25.7977 30.7575 25.7483L30.6716 25.7061V25.2852C30.6716 24.8692 30.6728 24.8632 30.7557 24.7976C30.8606 24.7146 30.9284 24.5563 30.9284 24.3935C30.9284 24.2886 30.949 24.2501 31.0566 24.1529C31.1536 24.0654 31.185 24.0128 31.185 23.9379C31.185 23.855 31.1975 23.8388 31.2612 23.8388C31.3513 23.8388 31.3992 23.7883 31.4145 23.6774C31.4225 23.6199 31.4485 23.5936 31.5059 23.5856C31.6162 23.5703 31.6662 23.5221 31.6662 23.4316C31.6662 23.3675 31.6824 23.3549 31.764 23.3549C31.8851 23.3549 32.0266 23.2837 32.1051 23.1832C32.1556 23.1188 32.2027 23.1043 32.417 23.088C32.6578 23.0698 32.6736 23.0636 32.7637 22.9539C32.8773 22.8153 33.2703 22.7721 33.2703 22.8983C33.2703 23.0119 33.3795 23.0681 33.6388 23.0878C33.8706 23.1054 33.89 23.1128 33.9707 23.2152C34.0311 23.2918 34.0921 23.3297 34.177 23.3435C34.2625 23.3574 34.3091 23.3867 34.3374 23.4441C34.3609 23.4917 34.4336 23.5469 34.5139 23.5781C34.6875 23.6458 34.758 23.7227 34.8077 23.899C34.8383 24.0074 34.8689 24.0478 34.9411 24.0753C35.013 24.1026 35.035 24.1314 35.035 24.1984C35.035 24.3654 35.0947 24.3871 35.553 24.3871H35.9702L36.0853 24.258C36.1865 24.1448 36.2177 24.1291 36.3413 24.1291C36.5042 24.1291 36.6389 24.0677 36.7292 23.9522C36.7744 23.8943 36.8237 23.8709 36.9005 23.8707C37.1065 23.8705 37.2534 23.809 37.2917 23.7072C37.3186 23.635 37.3473 23.6129 37.4139 23.6129C37.5691 23.6129 37.6016 23.5436 37.6016 23.2128V22.914L37.4734 22.8103C37.377 22.7325 37.345 22.6833 37.345 22.6134C37.345 22.4532 37.2926 22.3626 37.1866 22.3392C37.1111 22.3225 37.0884 22.2999 37.0884 22.242C37.0884 22.1369 37.0564 22.0645 37.0102 22.0645C36.9606 22.0645 36.8316 21.9281 36.8316 21.8756C36.8316 21.821 36.2995 21.2903 36.2447 21.2903C36.2204 21.2903 36.1486 21.2323 36.0853 21.1612C36.0019 21.0679 35.9447 21.0323 35.8785 21.0323C35.8067 21.0323 35.7794 21.0118 35.7517 20.9381C35.7141 20.838 35.5669 20.7747 35.3709 20.7743C35.2929 20.7743 35.2666 20.7556 35.2383 20.6801C35.1942 20.5626 35.0494 20.5165 34.7222 20.5163C34.4987 20.5161 34.4896 20.513 34.4896 20.4395C34.4896 20.2757 34.48 20.2746 33.0811 20.2678C32.0896 20.2628 31.7517 20.2711 31.6662 20.3025Z" fill="#5600D6"/>
</g>
<defs>
<clipPath id="clip0_8_14">
<rect width="77" height="32" fill="white"/>
</clipPath>
</defs>
</svg>
